<mxfile host="app.diagrams.net" modified="2023-08-29T08:34:53.646Z" agent="Mozilla/5.0 (Windows NT 10.0; Win64; x64) AppleWebKit/537.36 (KHTML, like Gecko) Chrome/116.0.0.0 Safari/537.36" etag="U9H-rh865iEFPNpvfefu" version="21.6.9" type="github" pages="5">
  <diagram name="启动流程图" id="OmMjOVtj1WEUcLDQ50cM">
    <mxGraphModel dx="1434" dy="758" grid="1" gridSize="10" guides="1" tooltips="1" connect="1" arrows="1" fold="1" page="1" pageScale="1" pageWidth="850" pageHeight="1100" math="0" shadow="0">
      <root>
        <mxCell id="0" />
        <mxCell id="1" parent="0" />
        <mxCell id="U54HDKtVTgjxA1WfnPBP-10" value="" style="rounded=0;whiteSpace=wrap;html=1;fillColor=none;dashed=1;strokeColor=#007FFF;" parent="1" vertex="1">
          <mxGeometry x="80" y="970" width="680" height="300" as="geometry" />
        </mxCell>
        <mxCell id="BeOqlMDNT2hyVOoKO-SY-1" value="" style="rounded=0;whiteSpace=wrap;html=1;fillColor=none;dashed=1;strokeColor=#666666;" parent="1" vertex="1">
          <mxGeometry x="80" y="60" width="680" height="250" as="geometry" />
        </mxCell>
        <mxCell id="BeOqlMDNT2hyVOoKO-SY-3" value="" style="rounded=0;whiteSpace=wrap;html=1;fillColor=none;dashed=1;strokeColor=#FF8000;" parent="1" vertex="1">
          <mxGeometry x="80" y="330" width="680" height="620" as="geometry" />
        </mxCell>
        <object placeholders="1" c4Name="Free/Store 启动流程图" c4Type="ContainerScopeBoundary" c4Application="WebApps" label="&lt;font style=&quot;font-size: 16px&quot;&gt;&lt;b&gt;&lt;div style=&quot;text-align: left&quot;&gt;%c4Name%&lt;/div&gt;&lt;/b&gt;&lt;/font&gt;&lt;div style=&quot;text-align: left&quot;&gt;[%c4Application%]&lt;/div&gt;" id="r8vYQXkaB_07H2IU4NtA-5">
          <mxCell style="rounded=1;fontSize=11;whiteSpace=wrap;html=1;dashed=1;arcSize=20;fillColor=none;strokeColor=#666666;fontColor=#333333;labelBackgroundColor=none;align=left;verticalAlign=bottom;labelBorderColor=none;spacingTop=0;spacing=10;dashPattern=8 4;metaEdit=1;rotatable=0;perimeter=rectanglePerimeter;noLabel=0;labelPadding=0;allowArrows=0;connectable=0;expand=0;recursiveResize=0;editable=1;pointerEvents=0;absoluteArcSize=1;points=[[0.25,0,0],[0.5,0,0],[0.75,0,0],[1,0.25,0],[1,0.5,0],[1,0.75,0],[0.75,1,0],[0.5,1,0],[0.25,1,0],[0,0.75,0],[0,0.5,0],[0,0.25,0]];" parent="1" vertex="1">
            <mxGeometry x="40" y="40" width="760" height="1290" as="geometry" />
          </mxCell>
        </object>
        <mxCell id="6uTm8aSySn-QDbrz-3B_-30" value="" style="edgeStyle=orthogonalEdgeStyle;rounded=0;sketch=1;hachureGap=4;jiggle=2;curveFitting=1;orthogonalLoop=1;jettySize=auto;html=1;fontFamily=Architects Daughter;fontSource=https%3A%2F%2Ffonts.googleapis.com%2Fcss%3Ffamily%3DArchitects%2BDaughter;fontSize=16;" parent="1" source="6uTm8aSySn-QDbrz-3B_-28" target="6uTm8aSySn-QDbrz-3B_-29" edge="1">
          <mxGeometry relative="1" as="geometry" />
        </mxCell>
        <mxCell id="6uTm8aSySn-QDbrz-3B_-28" value="电视开机" style="rounded=1;whiteSpace=wrap;html=1;sketch=1;hachureGap=4;jiggle=2;curveFitting=1;fontFamily=Architects Daughter;fontSource=https%3A%2F%2Ffonts.googleapis.com%2Fcss%3Ffamily%3DArchitects%2BDaughter;fontSize=20;" parent="1" vertex="1">
          <mxGeometry x="360" y="80" width="120" height="40" as="geometry" />
        </mxCell>
        <mxCell id="6uTm8aSySn-QDbrz-3B_-32" value="" style="edgeStyle=orthogonalEdgeStyle;rounded=0;sketch=1;hachureGap=4;jiggle=2;curveFitting=1;orthogonalLoop=1;jettySize=auto;html=1;fontFamily=Architects Daughter;fontSource=https%3A%2F%2Ffonts.googleapis.com%2Fcss%3Ffamily%3DArchitects%2BDaughter;fontSize=16;" parent="1" source="6uTm8aSySn-QDbrz-3B_-29" target="6uTm8aSySn-QDbrz-3B_-31" edge="1">
          <mxGeometry relative="1" as="geometry" />
        </mxCell>
        <mxCell id="6uTm8aSySn-QDbrz-3B_-29" value="用户浏览 Launcher" style="rounded=1;whiteSpace=wrap;html=1;sketch=1;hachureGap=4;jiggle=2;curveFitting=1;fontFamily=Architects Daughter;fontSource=https%3A%2F%2Ffonts.googleapis.com%2Fcss%3Ffamily%3DArchitects%2BDaughter;fontSize=20;" parent="1" vertex="1">
          <mxGeometry x="320" y="160" width="200" height="40" as="geometry" />
        </mxCell>
        <mxCell id="emMIz5wo6naSiFdNRP4s-1" style="edgeStyle=orthogonalEdgeStyle;rounded=0;sketch=1;hachureGap=4;jiggle=2;curveFitting=1;orthogonalLoop=1;jettySize=auto;html=1;exitX=0.5;exitY=1;exitDx=0;exitDy=0;entryX=0.5;entryY=0;entryDx=0;entryDy=0;fontFamily=Architects Daughter;fontSource=https%3A%2F%2Ffonts.googleapis.com%2Fcss%3Ffamily%3DArchitects%2BDaughter;fontSize=16;" parent="1" source="6uTm8aSySn-QDbrz-3B_-31" target="StkmtZbddWQm4w43DIUN-15" edge="1">
          <mxGeometry relative="1" as="geometry" />
        </mxCell>
        <mxCell id="6uTm8aSySn-QDbrz-3B_-31" value="打开 Free / Store" style="rounded=1;whiteSpace=wrap;html=1;sketch=1;hachureGap=4;jiggle=2;curveFitting=1;fontFamily=Architects Daughter;fontSource=https%3A%2F%2Ffonts.googleapis.com%2Fcss%3Ffamily%3DArchitects%2BDaughter;fontSize=20;" parent="1" vertex="1">
          <mxGeometry x="320" y="240" width="200" height="40" as="geometry" />
        </mxCell>
        <mxCell id="U54HDKtVTgjxA1WfnPBP-5" value="" style="edgeStyle=orthogonalEdgeStyle;rounded=0;sketch=1;hachureGap=4;jiggle=2;curveFitting=1;orthogonalLoop=1;jettySize=auto;html=1;fontFamily=Architects Daughter;fontSource=https%3A%2F%2Ffonts.googleapis.com%2Fcss%3Ffamily%3DArchitects%2BDaughter;fontSize=16;" parent="1" source="6uTm8aSySn-QDbrz-3B_-37" target="U54HDKtVTgjxA1WfnPBP-4" edge="1">
          <mxGeometry relative="1" as="geometry" />
        </mxCell>
        <mxCell id="6uTm8aSySn-QDbrz-3B_-37" value="展示 Banner 及 WaterFall 数据" style="rounded=1;whiteSpace=wrap;html=1;sketch=1;hachureGap=4;jiggle=2;curveFitting=1;fontFamily=Architects Daughter;fontSource=https%3A%2F%2Ffonts.googleapis.com%2Fcss%3Ffamily%3DArchitects%2BDaughter;fontSize=20;" parent="1" vertex="1">
          <mxGeometry x="240" y="880" width="360" height="40" as="geometry" />
        </mxCell>
        <mxCell id="BeOqlMDNT2hyVOoKO-SY-2" value="应用启动前" style="text;html=1;strokeColor=#666666;fillColor=#f5f5f5;align=center;verticalAlign=middle;whiteSpace=wrap;rounded=0;dashed=1;fontColor=#333333;" parent="1" vertex="1">
          <mxGeometry x="80" y="60" width="120" height="30" as="geometry" />
        </mxCell>
        <mxCell id="BeOqlMDNT2hyVOoKO-SY-4" value="应用启动后" style="text;html=1;strokeColor=#d79b00;fillColor=#ffe6cc;align=center;verticalAlign=middle;whiteSpace=wrap;rounded=0;dashed=1;" parent="1" vertex="1">
          <mxGeometry x="80" y="330" width="120" height="30" as="geometry" />
        </mxCell>
        <mxCell id="StkmtZbddWQm4w43DIUN-12" value="" style="edgeStyle=orthogonalEdgeStyle;rounded=0;sketch=1;hachureGap=4;jiggle=2;curveFitting=1;orthogonalLoop=1;jettySize=auto;html=1;fontFamily=Architects Daughter;fontSource=https%3A%2F%2Ffonts.googleapis.com%2Fcss%3Ffamily%3DArchitects%2BDaughter;fontSize=16;" parent="1" source="StkmtZbddWQm4w43DIUN-8" target="StkmtZbddWQm4w43DIUN-11" edge="1">
          <mxGeometry relative="1" as="geometry">
            <Array as="points">
              <mxPoint x="510" y="480" />
              <mxPoint x="510" y="480" />
            </Array>
          </mxGeometry>
        </mxCell>
        <mxCell id="StkmtZbddWQm4w43DIUN-33" value="非首次启动" style="edgeLabel;html=1;align=center;verticalAlign=middle;resizable=0;points=[];fontSize=20;fontFamily=Architects Daughter;" parent="StkmtZbddWQm4w43DIUN-12" vertex="1" connectable="0">
          <mxGeometry x="-0.2955" y="3" relative="1" as="geometry">
            <mxPoint x="-55" y="23" as="offset" />
          </mxGeometry>
        </mxCell>
        <mxCell id="StkmtZbddWQm4w43DIUN-14" value="" style="edgeStyle=orthogonalEdgeStyle;rounded=0;sketch=1;hachureGap=4;jiggle=2;curveFitting=1;orthogonalLoop=1;jettySize=auto;html=1;fontFamily=Architects Daughter;fontSource=https%3A%2F%2Ffonts.googleapis.com%2Fcss%3Ffamily%3DArchitects%2BDaughter;fontSize=16;" parent="1" source="StkmtZbddWQm4w43DIUN-8" target="StkmtZbddWQm4w43DIUN-13" edge="1">
          <mxGeometry relative="1" as="geometry" />
        </mxCell>
        <mxCell id="StkmtZbddWQm4w43DIUN-8" value="首次启动" style="rhombus;whiteSpace=wrap;html=1;fontSize=20;fontFamily=Architects Daughter;rounded=1;sketch=1;hachureGap=4;jiggle=2;curveFitting=1;fontSource=https%3A%2F%2Ffonts.googleapis.com%2Fcss%3Ffamily%3DArchitects%2BDaughter;" parent="1" vertex="1">
          <mxGeometry x="360" y="440" width="120" height="80" as="geometry" />
        </mxCell>
        <mxCell id="StkmtZbddWQm4w43DIUN-35" style="edgeStyle=orthogonalEdgeStyle;rounded=0;sketch=1;hachureGap=4;jiggle=2;curveFitting=1;orthogonalLoop=1;jettySize=auto;html=1;exitX=0.5;exitY=1;exitDx=0;exitDy=0;entryX=0.5;entryY=0;entryDx=0;entryDy=0;fontFamily=Architects Daughter;fontSource=https%3A%2F%2Ffonts.googleapis.com%2Fcss%3Ffamily%3DArchitects%2BDaughter;fontSize=16;" parent="1" source="StkmtZbddWQm4w43DIUN-11" target="6uTm8aSySn-QDbrz-3B_-37" edge="1">
          <mxGeometry relative="1" as="geometry" />
        </mxCell>
        <mxCell id="StkmtZbddWQm4w43DIUN-11" value="获取缓存数据" style="whiteSpace=wrap;html=1;fontSize=20;fontFamily=Architects Daughter;rounded=1;sketch=1;hachureGap=4;jiggle=2;curveFitting=1;fontSource=https%3A%2F%2Ffonts.googleapis.com%2Fcss%3Ffamily%3DArchitects%2BDaughter;" parent="1" vertex="1">
          <mxGeometry x="560" y="760" width="160" height="40" as="geometry" />
        </mxCell>
        <mxCell id="StkmtZbddWQm4w43DIUN-21" value="" style="edgeStyle=orthogonalEdgeStyle;rounded=0;sketch=1;hachureGap=4;jiggle=2;curveFitting=1;orthogonalLoop=1;jettySize=auto;html=1;fontFamily=Architects Daughter;fontSource=https%3A%2F%2Ffonts.googleapis.com%2Fcss%3Ffamily%3DArchitects%2BDaughter;fontSize=16;" parent="1" source="StkmtZbddWQm4w43DIUN-13" target="StkmtZbddWQm4w43DIUN-20" edge="1">
          <mxGeometry relative="1" as="geometry" />
        </mxCell>
        <mxCell id="StkmtZbddWQm4w43DIUN-13" value="请求云端数据" style="whiteSpace=wrap;html=1;fontSize=20;fontFamily=Architects Daughter;rounded=1;sketch=1;hachureGap=4;jiggle=2;curveFitting=1;fontSource=https%3A%2F%2Ffonts.googleapis.com%2Fcss%3Ffamily%3DArchitects%2BDaughter;" parent="1" vertex="1">
          <mxGeometry x="350" y="570" width="140" height="40" as="geometry" />
        </mxCell>
        <mxCell id="StkmtZbddWQm4w43DIUN-17" style="edgeStyle=orthogonalEdgeStyle;rounded=0;sketch=1;hachureGap=4;jiggle=2;curveFitting=1;orthogonalLoop=1;jettySize=auto;html=1;exitX=0.5;exitY=1;exitDx=0;exitDy=0;entryX=0.5;entryY=0;entryDx=0;entryDy=0;fontFamily=Architects Daughter;fontSource=https%3A%2F%2Ffonts.googleapis.com%2Fcss%3Ffamily%3DArchitects%2BDaughter;fontSize=16;" parent="1" source="StkmtZbddWQm4w43DIUN-15" target="StkmtZbddWQm4w43DIUN-8" edge="1">
          <mxGeometry relative="1" as="geometry" />
        </mxCell>
        <mxCell id="StkmtZbddWQm4w43DIUN-15" value="初始化 GLOBAL 信息" style="rounded=1;whiteSpace=wrap;html=1;sketch=1;hachureGap=4;jiggle=2;curveFitting=1;fontFamily=Architects Daughter;fontSource=https%3A%2F%2Ffonts.googleapis.com%2Fcss%3Ffamily%3DArchitects%2BDaughter;fontSize=20;" parent="1" vertex="1">
          <mxGeometry x="310" y="360" width="220" height="40" as="geometry" />
        </mxCell>
        <mxCell id="StkmtZbddWQm4w43DIUN-26" value="" style="edgeStyle=orthogonalEdgeStyle;rounded=0;sketch=1;hachureGap=4;jiggle=2;curveFitting=1;orthogonalLoop=1;jettySize=auto;html=1;fontFamily=Architects Daughter;fontSource=https%3A%2F%2Ffonts.googleapis.com%2Fcss%3Ffamily%3DArchitects%2BDaughter;fontSize=16;" parent="1" source="StkmtZbddWQm4w43DIUN-20" target="StkmtZbddWQm4w43DIUN-25" edge="1">
          <mxGeometry relative="1" as="geometry" />
        </mxCell>
        <mxCell id="StkmtZbddWQm4w43DIUN-30" style="edgeStyle=orthogonalEdgeStyle;rounded=0;sketch=1;hachureGap=4;jiggle=2;curveFitting=1;orthogonalLoop=1;jettySize=auto;html=1;exitX=0;exitY=0.5;exitDx=0;exitDy=0;fontFamily=Architects Daughter;fontSource=https%3A%2F%2Ffonts.googleapis.com%2Fcss%3Ffamily%3DArchitects%2BDaughter;fontSize=16;" parent="1" source="StkmtZbddWQm4w43DIUN-20" edge="1">
          <mxGeometry relative="1" as="geometry">
            <mxPoint x="420" y="540" as="targetPoint" />
            <Array as="points">
              <mxPoint x="240" y="680" />
              <mxPoint x="240" y="540" />
            </Array>
          </mxGeometry>
        </mxCell>
        <mxCell id="StkmtZbddWQm4w43DIUN-31" value="重试" style="edgeLabel;html=1;align=center;verticalAlign=middle;resizable=0;points=[];fontSize=20;fontFamily=Architects Daughter;" parent="StkmtZbddWQm4w43DIUN-30" vertex="1" connectable="0">
          <mxGeometry x="-0.0056" y="3" relative="1" as="geometry">
            <mxPoint x="33" y="-21" as="offset" />
          </mxGeometry>
        </mxCell>
        <mxCell id="StkmtZbddWQm4w43DIUN-32" value="失败" style="edgeLabel;html=1;align=center;verticalAlign=middle;resizable=0;points=[];fontSize=20;fontFamily=Architects Daughter;" parent="StkmtZbddWQm4w43DIUN-30" vertex="1" connectable="0">
          <mxGeometry x="-0.6556" relative="1" as="geometry">
            <mxPoint x="-14" y="-20" as="offset" />
          </mxGeometry>
        </mxCell>
        <mxCell id="StkmtZbddWQm4w43DIUN-20" value="请求状态" style="rhombus;whiteSpace=wrap;html=1;fontSize=20;fontFamily=Architects Daughter;rounded=1;sketch=1;hachureGap=4;jiggle=2;curveFitting=1;fontSource=https%3A%2F%2Ffonts.googleapis.com%2Fcss%3Ffamily%3DArchitects%2BDaughter;" parent="1" vertex="1">
          <mxGeometry x="360" y="640" width="120" height="80" as="geometry" />
        </mxCell>
        <mxCell id="StkmtZbddWQm4w43DIUN-34" style="edgeStyle=orthogonalEdgeStyle;rounded=0;sketch=1;hachureGap=4;jiggle=2;curveFitting=1;orthogonalLoop=1;jettySize=auto;html=1;exitX=0.5;exitY=1;exitDx=0;exitDy=0;entryX=0.5;entryY=0;entryDx=0;entryDy=0;fontFamily=Architects Daughter;fontSource=https%3A%2F%2Ffonts.googleapis.com%2Fcss%3Ffamily%3DArchitects%2BDaughter;fontSize=16;" parent="1" source="StkmtZbddWQm4w43DIUN-25" target="6uTm8aSySn-QDbrz-3B_-37" edge="1">
          <mxGeometry relative="1" as="geometry" />
        </mxCell>
        <mxCell id="StkmtZbddWQm4w43DIUN-25" value="使用云端数据" style="whiteSpace=wrap;html=1;fontSize=20;fontFamily=Architects Daughter;rounded=1;sketch=1;hachureGap=4;jiggle=2;curveFitting=1;fontSource=https%3A%2F%2Ffonts.googleapis.com%2Fcss%3Ffamily%3DArchitects%2BDaughter;" parent="1" vertex="1">
          <mxGeometry x="350" y="760" width="140" height="40" as="geometry" />
        </mxCell>
        <mxCell id="U54HDKtVTgjxA1WfnPBP-7" value="" style="edgeStyle=orthogonalEdgeStyle;rounded=0;sketch=1;hachureGap=4;jiggle=2;curveFitting=1;orthogonalLoop=1;jettySize=auto;html=1;fontFamily=Architects Daughter;fontSource=https%3A%2F%2Ffonts.googleapis.com%2Fcss%3Ffamily%3DArchitects%2BDaughter;fontSize=16;" parent="1" source="U54HDKtVTgjxA1WfnPBP-4" target="U54HDKtVTgjxA1WfnPBP-6" edge="1">
          <mxGeometry relative="1" as="geometry" />
        </mxCell>
        <mxCell id="U54HDKtVTgjxA1WfnPBP-4" value="登录状态" style="rhombus;whiteSpace=wrap;html=1;fontSize=20;fontFamily=Architects Daughter;rounded=1;sketch=1;hachureGap=4;jiggle=2;curveFitting=1;fontSource=https%3A%2F%2Ffonts.googleapis.com%2Fcss%3Ffamily%3DArchitects%2BDaughter;" parent="1" vertex="1">
          <mxGeometry x="360" y="1000" width="120" height="80" as="geometry" />
        </mxCell>
        <mxCell id="U54HDKtVTgjxA1WfnPBP-9" value="" style="edgeStyle=orthogonalEdgeStyle;rounded=0;sketch=1;hachureGap=4;jiggle=2;curveFitting=1;orthogonalLoop=1;jettySize=auto;html=1;fontFamily=Architects Daughter;fontSource=https%3A%2F%2Ffonts.googleapis.com%2Fcss%3Ffamily%3DArchitects%2BDaughter;fontSize=16;" parent="1" source="U54HDKtVTgjxA1WfnPBP-6" target="U54HDKtVTgjxA1WfnPBP-8" edge="1">
          <mxGeometry relative="1" as="geometry" />
        </mxCell>
        <mxCell id="U54HDKtVTgjxA1WfnPBP-6" value="获取观看历史记录" style="whiteSpace=wrap;html=1;fontSize=20;fontFamily=Architects Daughter;rounded=1;sketch=1;hachureGap=4;jiggle=2;curveFitting=1;fontSource=https%3A%2F%2Ffonts.googleapis.com%2Fcss%3Ffamily%3DArchitects%2BDaughter;" parent="1" vertex="1">
          <mxGeometry x="320" y="1120" width="200" height="40" as="geometry" />
        </mxCell>
        <mxCell id="U54HDKtVTgjxA1WfnPBP-8" value="插入瀑布流第一行前" style="whiteSpace=wrap;html=1;fontSize=20;fontFamily=Architects Daughter;rounded=1;sketch=1;hachureGap=4;jiggle=2;curveFitting=1;fontSource=https%3A%2F%2Ffonts.googleapis.com%2Fcss%3Ffamily%3DArchitects%2BDaughter;" parent="1" vertex="1">
          <mxGeometry x="320" y="1200" width="200" height="40" as="geometry" />
        </mxCell>
        <mxCell id="U54HDKtVTgjxA1WfnPBP-11" value="仅 Free 有的逻辑" style="text;html=1;strokeColor=#6c8ebf;fillColor=#dae8fc;align=center;verticalAlign=middle;whiteSpace=wrap;rounded=0;dashed=1;" parent="1" vertex="1">
          <mxGeometry x="80" y="970" width="120" height="30" as="geometry" />
        </mxCell>
        <mxCell id="inMUaE2B652QoWm0SJNz-1" value="" style="rounded=0;whiteSpace=wrap;html=1;fillColor=none;dashed=1;strokeColor=#007FFF;" vertex="1" parent="1">
          <mxGeometry x="920" y="970" width="680" height="300" as="geometry" />
        </mxCell>
        <mxCell id="inMUaE2B652QoWm0SJNz-2" value="" style="rounded=0;whiteSpace=wrap;html=1;fillColor=none;dashed=1;strokeColor=#666666;" vertex="1" parent="1">
          <mxGeometry x="920" y="60" width="680" height="250" as="geometry" />
        </mxCell>
        <mxCell id="inMUaE2B652QoWm0SJNz-3" value="" style="rounded=0;whiteSpace=wrap;html=1;fillColor=none;dashed=1;strokeColor=#FF8000;" vertex="1" parent="1">
          <mxGeometry x="920" y="330" width="680" height="620" as="geometry" />
        </mxCell>
        <object placeholders="1" c4Name="Free/Store Startup Flowchart" c4Type="ContainerScopeBoundary" c4Application="WebApps" label="&lt;font style=&quot;font-size: 16px&quot;&gt;&lt;b&gt;&lt;div style=&quot;text-align: left&quot;&gt;%c4Name%&lt;/div&gt;&lt;/b&gt;&lt;/font&gt;&lt;div style=&quot;text-align: left&quot;&gt;[%c4Application%]&lt;/div&gt;" id="inMUaE2B652QoWm0SJNz-4">
          <mxCell style="rounded=1;fontSize=11;whiteSpace=wrap;html=1;dashed=1;arcSize=20;fillColor=none;strokeColor=#666666;fontColor=#333333;labelBackgroundColor=none;align=left;verticalAlign=bottom;labelBorderColor=none;spacingTop=0;spacing=10;dashPattern=8 4;metaEdit=1;rotatable=0;perimeter=rectanglePerimeter;noLabel=0;labelPadding=0;allowArrows=0;connectable=0;expand=0;recursiveResize=0;editable=1;pointerEvents=0;absoluteArcSize=1;points=[[0.25,0,0],[0.5,0,0],[0.75,0,0],[1,0.25,0],[1,0.5,0],[1,0.75,0],[0.75,1,0],[0.5,1,0],[0.25,1,0],[0,0.75,0],[0,0.5,0],[0,0.25,0]];" vertex="1" parent="1">
            <mxGeometry x="880" y="40" width="760" height="1290" as="geometry" />
          </mxCell>
        </object>
        <mxCell id="inMUaE2B652QoWm0SJNz-5" value="" style="edgeStyle=orthogonalEdgeStyle;rounded=0;sketch=1;hachureGap=4;jiggle=2;curveFitting=1;orthogonalLoop=1;jettySize=auto;html=1;fontFamily=Architects Daughter;fontSource=https%3A%2F%2Ffonts.googleapis.com%2Fcss%3Ffamily%3DArchitects%2BDaughter;fontSize=16;" edge="1" source="inMUaE2B652QoWm0SJNz-6" target="inMUaE2B652QoWm0SJNz-8" parent="1">
          <mxGeometry relative="1" as="geometry" />
        </mxCell>
        <mxCell id="inMUaE2B652QoWm0SJNz-6" value="TV on" style="rounded=1;whiteSpace=wrap;html=1;sketch=1;hachureGap=4;jiggle=2;curveFitting=1;fontFamily=Architects Daughter;fontSource=https%3A%2F%2Ffonts.googleapis.com%2Fcss%3Ffamily%3DArchitects%2BDaughter;fontSize=20;" vertex="1" parent="1">
          <mxGeometry x="1200" y="80" width="120" height="40" as="geometry" />
        </mxCell>
        <mxCell id="inMUaE2B652QoWm0SJNz-7" value="" style="edgeStyle=orthogonalEdgeStyle;rounded=0;sketch=1;hachureGap=4;jiggle=2;curveFitting=1;orthogonalLoop=1;jettySize=auto;html=1;fontFamily=Architects Daughter;fontSource=https%3A%2F%2Ffonts.googleapis.com%2Fcss%3Ffamily%3DArchitects%2BDaughter;fontSize=16;" edge="1" source="inMUaE2B652QoWm0SJNz-8" target="inMUaE2B652QoWm0SJNz-10" parent="1">
          <mxGeometry relative="1" as="geometry" />
        </mxCell>
        <mxCell id="inMUaE2B652QoWm0SJNz-8" value="User Browsing Launcher" style="rounded=1;whiteSpace=wrap;html=1;sketch=1;hachureGap=4;jiggle=2;curveFitting=1;fontFamily=Architects Daughter;fontSource=https%3A%2F%2Ffonts.googleapis.com%2Fcss%3Ffamily%3DArchitects%2BDaughter;fontSize=20;" vertex="1" parent="1">
          <mxGeometry x="1120" y="160" width="280" height="40" as="geometry" />
        </mxCell>
        <mxCell id="inMUaE2B652QoWm0SJNz-9" style="edgeStyle=orthogonalEdgeStyle;rounded=0;sketch=1;hachureGap=4;jiggle=2;curveFitting=1;orthogonalLoop=1;jettySize=auto;html=1;exitX=0.5;exitY=1;exitDx=0;exitDy=0;entryX=0.5;entryY=0;entryDx=0;entryDy=0;fontFamily=Architects Daughter;fontSource=https%3A%2F%2Ffonts.googleapis.com%2Fcss%3Ffamily%3DArchitects%2BDaughter;fontSize=16;" edge="1" source="inMUaE2B652QoWm0SJNz-10" target="inMUaE2B652QoWm0SJNz-24" parent="1">
          <mxGeometry relative="1" as="geometry" />
        </mxCell>
        <mxCell id="inMUaE2B652QoWm0SJNz-10" value="Open Free / Store" style="rounded=1;whiteSpace=wrap;html=1;sketch=1;hachureGap=4;jiggle=2;curveFitting=1;fontFamily=Architects Daughter;fontSource=https%3A%2F%2Ffonts.googleapis.com%2Fcss%3Ffamily%3DArchitects%2BDaughter;fontSize=20;" vertex="1" parent="1">
          <mxGeometry x="1160" y="240" width="200" height="40" as="geometry" />
        </mxCell>
        <mxCell id="inMUaE2B652QoWm0SJNz-11" value="" style="edgeStyle=orthogonalEdgeStyle;rounded=0;sketch=1;hachureGap=4;jiggle=2;curveFitting=1;orthogonalLoop=1;jettySize=auto;html=1;fontFamily=Architects Daughter;fontSource=https%3A%2F%2Ffonts.googleapis.com%2Fcss%3Ffamily%3DArchitects%2BDaughter;fontSize=16;" edge="1" source="inMUaE2B652QoWm0SJNz-12" target="inMUaE2B652QoWm0SJNz-33" parent="1">
          <mxGeometry relative="1" as="geometry" />
        </mxCell>
        <mxCell id="inMUaE2B652QoWm0SJNz-12" value="Display Banner and WaterFall data" style="rounded=1;whiteSpace=wrap;html=1;sketch=1;hachureGap=4;jiggle=2;curveFitting=1;fontFamily=Architects Daughter;fontSource=https%3A%2F%2Ffonts.googleapis.com%2Fcss%3Ffamily%3DArchitects%2BDaughter;fontSize=20;" vertex="1" parent="1">
          <mxGeometry x="1080" y="880" width="360" height="40" as="geometry" />
        </mxCell>
        <mxCell id="inMUaE2B652QoWm0SJNz-13" value="Before the application starts" style="text;html=1;strokeColor=#666666;fillColor=#f5f5f5;align=center;verticalAlign=middle;whiteSpace=wrap;rounded=0;dashed=1;fontColor=#333333;" vertex="1" parent="1">
          <mxGeometry x="920" y="60" width="200" height="30" as="geometry" />
        </mxCell>
        <mxCell id="inMUaE2B652QoWm0SJNz-14" value="After the application is launched" style="text;html=1;strokeColor=#d79b00;fillColor=#ffe6cc;align=center;verticalAlign=middle;whiteSpace=wrap;rounded=0;dashed=1;" vertex="1" parent="1">
          <mxGeometry x="920" y="330" width="200" height="30" as="geometry" />
        </mxCell>
        <mxCell id="inMUaE2B652QoWm0SJNz-15" value="" style="edgeStyle=orthogonalEdgeStyle;rounded=0;sketch=1;hachureGap=4;jiggle=2;curveFitting=1;orthogonalLoop=1;jettySize=auto;html=1;fontFamily=Architects Daughter;fontSource=https%3A%2F%2Ffonts.googleapis.com%2Fcss%3Ffamily%3DArchitects%2BDaughter;fontSize=16;" edge="1" source="inMUaE2B652QoWm0SJNz-18" target="inMUaE2B652QoWm0SJNz-20" parent="1">
          <mxGeometry relative="1" as="geometry">
            <Array as="points">
              <mxPoint x="1350" y="480" />
              <mxPoint x="1350" y="480" />
            </Array>
          </mxGeometry>
        </mxCell>
        <mxCell id="inMUaE2B652QoWm0SJNz-16" value="Non-first-time activation" style="edgeLabel;html=1;align=center;verticalAlign=middle;resizable=0;points=[];fontSize=20;fontFamily=Architects Daughter;" vertex="1" connectable="0" parent="inMUaE2B652QoWm0SJNz-15">
          <mxGeometry x="-0.2955" y="3" relative="1" as="geometry">
            <mxPoint x="-15" y="-17" as="offset" />
          </mxGeometry>
        </mxCell>
        <mxCell id="inMUaE2B652QoWm0SJNz-17" value="" style="edgeStyle=orthogonalEdgeStyle;rounded=0;sketch=1;hachureGap=4;jiggle=2;curveFitting=1;orthogonalLoop=1;jettySize=auto;html=1;fontFamily=Architects Daughter;fontSource=https%3A%2F%2Ffonts.googleapis.com%2Fcss%3Ffamily%3DArchitects%2BDaughter;fontSize=16;" edge="1" source="inMUaE2B652QoWm0SJNz-18" target="inMUaE2B652QoWm0SJNz-22" parent="1">
          <mxGeometry relative="1" as="geometry" />
        </mxCell>
        <mxCell id="inMUaE2B652QoWm0SJNz-18" value="initialization" style="rhombus;whiteSpace=wrap;html=1;fontSize=20;fontFamily=Architects Daughter;rounded=1;sketch=1;hachureGap=4;jiggle=2;curveFitting=1;fontSource=https%3A%2F%2Ffonts.googleapis.com%2Fcss%3Ffamily%3DArchitects%2BDaughter;" vertex="1" parent="1">
          <mxGeometry x="1200" y="440" width="120" height="80" as="geometry" />
        </mxCell>
        <mxCell id="inMUaE2B652QoWm0SJNz-19" style="edgeStyle=orthogonalEdgeStyle;rounded=0;sketch=1;hachureGap=4;jiggle=2;curveFitting=1;orthogonalLoop=1;jettySize=auto;html=1;exitX=0.5;exitY=1;exitDx=0;exitDy=0;entryX=0.5;entryY=0;entryDx=0;entryDy=0;fontFamily=Architects Daughter;fontSource=https%3A%2F%2Ffonts.googleapis.com%2Fcss%3Ffamily%3DArchitects%2BDaughter;fontSize=16;" edge="1" source="inMUaE2B652QoWm0SJNz-20" target="inMUaE2B652QoWm0SJNz-12" parent="1">
          <mxGeometry relative="1" as="geometry" />
        </mxCell>
        <mxCell id="inMUaE2B652QoWm0SJNz-20" value="Getting Cached Data" style="whiteSpace=wrap;html=1;fontSize=20;fontFamily=Architects Daughter;rounded=1;sketch=1;hachureGap=4;jiggle=2;curveFitting=1;fontSource=https%3A%2F%2Ffonts.googleapis.com%2Fcss%3Ffamily%3DArchitects%2BDaughter;" vertex="1" parent="1">
          <mxGeometry x="1370" y="760" width="220" height="40" as="geometry" />
        </mxCell>
        <mxCell id="inMUaE2B652QoWm0SJNz-21" value="" style="edgeStyle=orthogonalEdgeStyle;rounded=0;sketch=1;hachureGap=4;jiggle=2;curveFitting=1;orthogonalLoop=1;jettySize=auto;html=1;fontFamily=Architects Daughter;fontSource=https%3A%2F%2Ffonts.googleapis.com%2Fcss%3Ffamily%3DArchitects%2BDaughter;fontSize=16;" edge="1" source="inMUaE2B652QoWm0SJNz-22" target="inMUaE2B652QoWm0SJNz-29" parent="1">
          <mxGeometry relative="1" as="geometry" />
        </mxCell>
        <mxCell id="inMUaE2B652QoWm0SJNz-22" value="Requesting data from the cloud" style="whiteSpace=wrap;html=1;fontSize=20;fontFamily=Architects Daughter;rounded=1;sketch=1;hachureGap=4;jiggle=2;curveFitting=1;fontSource=https%3A%2F%2Ffonts.googleapis.com%2Fcss%3Ffamily%3DArchitects%2BDaughter;" vertex="1" parent="1">
          <mxGeometry x="1080" y="560" width="360" height="40" as="geometry" />
        </mxCell>
        <mxCell id="inMUaE2B652QoWm0SJNz-23" style="edgeStyle=orthogonalEdgeStyle;rounded=0;sketch=1;hachureGap=4;jiggle=2;curveFitting=1;orthogonalLoop=1;jettySize=auto;html=1;exitX=0.5;exitY=1;exitDx=0;exitDy=0;entryX=0.5;entryY=0;entryDx=0;entryDy=0;fontFamily=Architects Daughter;fontSource=https%3A%2F%2Ffonts.googleapis.com%2Fcss%3Ffamily%3DArchitects%2BDaughter;fontSize=16;" edge="1" source="inMUaE2B652QoWm0SJNz-24" target="inMUaE2B652QoWm0SJNz-18" parent="1">
          <mxGeometry relative="1" as="geometry" />
        </mxCell>
        <mxCell id="inMUaE2B652QoWm0SJNz-24" value="Initialize GLOBAL information" style="rounded=1;whiteSpace=wrap;html=1;sketch=1;hachureGap=4;jiggle=2;curveFitting=1;fontFamily=Architects Daughter;fontSource=https%3A%2F%2Ffonts.googleapis.com%2Fcss%3Ffamily%3DArchitects%2BDaughter;fontSize=20;" vertex="1" parent="1">
          <mxGeometry x="1120" y="360" width="280" height="40" as="geometry" />
        </mxCell>
        <mxCell id="inMUaE2B652QoWm0SJNz-25" value="" style="edgeStyle=orthogonalEdgeStyle;rounded=0;sketch=1;hachureGap=4;jiggle=2;curveFitting=1;orthogonalLoop=1;jettySize=auto;html=1;fontFamily=Architects Daughter;fontSource=https%3A%2F%2Ffonts.googleapis.com%2Fcss%3Ffamily%3DArchitects%2BDaughter;fontSize=16;" edge="1" source="inMUaE2B652QoWm0SJNz-29" target="inMUaE2B652QoWm0SJNz-31" parent="1">
          <mxGeometry relative="1" as="geometry" />
        </mxCell>
        <mxCell id="inMUaE2B652QoWm0SJNz-26" style="edgeStyle=orthogonalEdgeStyle;rounded=0;sketch=1;hachureGap=4;jiggle=2;curveFitting=1;orthogonalLoop=1;jettySize=auto;html=1;exitX=0;exitY=0.5;exitDx=0;exitDy=0;fontFamily=Architects Daughter;fontSource=https%3A%2F%2Ffonts.googleapis.com%2Fcss%3Ffamily%3DArchitects%2BDaughter;fontSize=16;" edge="1" source="inMUaE2B652QoWm0SJNz-29" parent="1">
          <mxGeometry relative="1" as="geometry">
            <mxPoint x="1260" y="540" as="targetPoint" />
            <Array as="points">
              <mxPoint x="1040" y="680" />
              <mxPoint x="1040" y="540" />
            </Array>
          </mxGeometry>
        </mxCell>
        <mxCell id="inMUaE2B652QoWm0SJNz-27" value="fail and retry" style="edgeLabel;html=1;align=center;verticalAlign=middle;resizable=0;points=[];fontSize=20;fontFamily=Architects Daughter;" vertex="1" connectable="0" parent="inMUaE2B652QoWm0SJNz-26">
          <mxGeometry x="-0.0056" y="3" relative="1" as="geometry">
            <mxPoint x="-17" y="-61" as="offset" />
          </mxGeometry>
        </mxCell>
        <mxCell id="inMUaE2B652QoWm0SJNz-29" value="request status" style="rhombus;whiteSpace=wrap;html=1;fontSize=20;fontFamily=Architects Daughter;rounded=1;sketch=1;hachureGap=4;jiggle=2;curveFitting=1;fontSource=https%3A%2F%2Ffonts.googleapis.com%2Fcss%3Ffamily%3DArchitects%2BDaughter;" vertex="1" parent="1">
          <mxGeometry x="1200" y="640" width="120" height="80" as="geometry" />
        </mxCell>
        <mxCell id="inMUaE2B652QoWm0SJNz-30" style="edgeStyle=orthogonalEdgeStyle;rounded=0;sketch=1;hachureGap=4;jiggle=2;curveFitting=1;orthogonalLoop=1;jettySize=auto;html=1;exitX=0.5;exitY=1;exitDx=0;exitDy=0;entryX=0.5;entryY=0;entryDx=0;entryDy=0;fontFamily=Architects Daughter;fontSource=https%3A%2F%2Ffonts.googleapis.com%2Fcss%3Ffamily%3DArchitects%2BDaughter;fontSize=16;" edge="1" source="inMUaE2B652QoWm0SJNz-31" target="inMUaE2B652QoWm0SJNz-12" parent="1">
          <mxGeometry relative="1" as="geometry" />
        </mxCell>
        <mxCell id="inMUaE2B652QoWm0SJNz-31" value="Using Cloud Data" style="whiteSpace=wrap;html=1;fontSize=20;fontFamily=Architects Daughter;rounded=1;sketch=1;hachureGap=4;jiggle=2;curveFitting=1;fontSource=https%3A%2F%2Ffonts.googleapis.com%2Fcss%3Ffamily%3DArchitects%2BDaughter;" vertex="1" parent="1">
          <mxGeometry x="1160" y="760" width="200" height="40" as="geometry" />
        </mxCell>
        <mxCell id="inMUaE2B652QoWm0SJNz-32" value="" style="edgeStyle=orthogonalEdgeStyle;rounded=0;sketch=1;hachureGap=4;jiggle=2;curveFitting=1;orthogonalLoop=1;jettySize=auto;html=1;fontFamily=Architects Daughter;fontSource=https%3A%2F%2Ffonts.googleapis.com%2Fcss%3Ffamily%3DArchitects%2BDaughter;fontSize=16;" edge="1" source="inMUaE2B652QoWm0SJNz-33" target="inMUaE2B652QoWm0SJNz-35" parent="1">
          <mxGeometry relative="1" as="geometry" />
        </mxCell>
        <mxCell id="inMUaE2B652QoWm0SJNz-33" value="login status" style="rhombus;whiteSpace=wrap;html=1;fontSize=20;fontFamily=Architects Daughter;rounded=1;sketch=1;hachureGap=4;jiggle=2;curveFitting=1;fontSource=https%3A%2F%2Ffonts.googleapis.com%2Fcss%3Ffamily%3DArchitects%2BDaughter;" vertex="1" parent="1">
          <mxGeometry x="1200" y="1000" width="120" height="80" as="geometry" />
        </mxCell>
        <mxCell id="inMUaE2B652QoWm0SJNz-34" value="" style="edgeStyle=orthogonalEdgeStyle;rounded=0;sketch=1;hachureGap=4;jiggle=2;curveFitting=1;orthogonalLoop=1;jettySize=auto;html=1;fontFamily=Architects Daughter;fontSource=https%3A%2F%2Ffonts.googleapis.com%2Fcss%3Ffamily%3DArchitects%2BDaughter;fontSize=16;" edge="1" source="inMUaE2B652QoWm0SJNz-35" target="inMUaE2B652QoWm0SJNz-36" parent="1">
          <mxGeometry relative="1" as="geometry" />
        </mxCell>
        <mxCell id="inMUaE2B652QoWm0SJNz-35" value="Get Viewing History" style="whiteSpace=wrap;html=1;fontSize=20;fontFamily=Architects Daughter;rounded=1;sketch=1;hachureGap=4;jiggle=2;curveFitting=1;fontSource=https%3A%2F%2Ffonts.googleapis.com%2Fcss%3Ffamily%3DArchitects%2BDaughter;" vertex="1" parent="1">
          <mxGeometry x="1160" y="1120" width="200" height="40" as="geometry" />
        </mxCell>
        <mxCell id="inMUaE2B652QoWm0SJNz-36" value="Insert before the first line of the waterfall" style="whiteSpace=wrap;html=1;fontSize=20;fontFamily=Architects Daughter;rounded=1;sketch=1;hachureGap=4;jiggle=2;curveFitting=1;fontSource=https%3A%2F%2Ffonts.googleapis.com%2Fcss%3Ffamily%3DArchitects%2BDaughter;" vertex="1" parent="1">
          <mxGeometry x="1160" y="1200" width="200" height="40" as="geometry" />
        </mxCell>
        <mxCell id="inMUaE2B652QoWm0SJNz-37" value="Free only logic" style="text;html=1;strokeColor=#6c8ebf;fillColor=#dae8fc;align=center;verticalAlign=middle;whiteSpace=wrap;rounded=0;dashed=1;" vertex="1" parent="1">
          <mxGeometry x="920" y="970" width="120" height="30" as="geometry" />
        </mxCell>
        <mxCell id="inMUaE2B652QoWm0SJNz-38" value="右侧是从左侧翻译过来的" style="text;html=1;strokeColor=none;fillColor=none;align=center;verticalAlign=middle;whiteSpace=wrap;rounded=0;" vertex="1" parent="1">
          <mxGeometry x="880" width="160" height="30" as="geometry" />
        </mxCell>
      </root>
    </mxGraphModel>
  </diagram>
  <diagram name="启动时序图" id="u4Ig959fDjBqOCB26ZBi">
    <mxGraphModel dx="1434" dy="756" grid="1" gridSize="10" guides="1" tooltips="1" connect="1" arrows="1" fold="1" page="1" pageScale="1" pageWidth="850" pageHeight="1100" math="0" shadow="0">
      <root>
        <mxCell id="xyCMXDjUnVWn2i5L96T--0" />
        <mxCell id="xyCMXDjUnVWn2i5L96T--1" parent="xyCMXDjUnVWn2i5L96T--0" />
        <mxCell id="xPAIn7jwNp17_iDfmiHx-0" value="" style="shape=umlLifeline;perimeter=lifelinePerimeter;whiteSpace=wrap;html=1;container=1;dropTarget=0;collapsible=0;recursiveResize=0;outlineConnect=0;portConstraint=eastwest;newEdgeStyle={&quot;edgeStyle&quot;:&quot;elbowEdgeStyle&quot;,&quot;elbow&quot;:&quot;vertical&quot;,&quot;curved&quot;:0,&quot;rounded&quot;:0};participant=umlActor;size=60;fillColor=#f8cecc;strokeColor=#b85450;strokeWidth=2;" parent="xyCMXDjUnVWn2i5L96T--1" vertex="1">
          <mxGeometry x="40" y="80" width="40" height="680" as="geometry" />
        </mxCell>
        <mxCell id="xPAIn7jwNp17_iDfmiHx-1" value="main.js" style="shape=umlLifeline;perimeter=lifelinePerimeter;whiteSpace=wrap;html=1;container=1;dropTarget=0;collapsible=0;recursiveResize=0;outlineConnect=0;portConstraint=eastwest;newEdgeStyle={&quot;edgeStyle&quot;:&quot;elbowEdgeStyle&quot;,&quot;elbow&quot;:&quot;vertical&quot;,&quot;curved&quot;:0,&quot;rounded&quot;:0};size=60;fillColor=#d5e8d4;strokeColor=#82b366;strokeWidth=2;" parent="xyCMXDjUnVWn2i5L96T--1" vertex="1">
          <mxGeometry x="180" y="80" width="100" height="680" as="geometry" />
        </mxCell>
        <mxCell id="xPAIn7jwNp17_iDfmiHx-2" value="" style="html=1;points=[];perimeter=orthogonalPerimeter;outlineConnect=0;targetShapes=umlLifeline;portConstraint=eastwest;newEdgeStyle={&quot;edgeStyle&quot;:&quot;elbowEdgeStyle&quot;,&quot;elbow&quot;:&quot;vertical&quot;,&quot;curved&quot;:0,&quot;rounded&quot;:0};" parent="xPAIn7jwNp17_iDfmiHx-1" vertex="1">
          <mxGeometry x="45" y="80" width="10" height="40" as="geometry" />
        </mxCell>
        <mxCell id="xPAIn7jwNp17_iDfmiHx-3" value="config.js" style="shape=umlLifeline;perimeter=lifelinePerimeter;whiteSpace=wrap;html=1;container=1;dropTarget=0;collapsible=0;recursiveResize=0;outlineConnect=0;portConstraint=eastwest;newEdgeStyle={&quot;edgeStyle&quot;:&quot;elbowEdgeStyle&quot;,&quot;elbow&quot;:&quot;vertical&quot;,&quot;curved&quot;:0,&quot;rounded&quot;:0};size=60;fillColor=#d5e8d4;strokeColor=#82b366;strokeWidth=2;" parent="xyCMXDjUnVWn2i5L96T--1" vertex="1">
          <mxGeometry x="340" y="80" width="100" height="680" as="geometry" />
        </mxCell>
        <mxCell id="xPAIn7jwNp17_iDfmiHx-4" value="" style="html=1;points=[];perimeter=orthogonalPerimeter;outlineConnect=0;targetShapes=umlLifeline;portConstraint=eastwest;newEdgeStyle={&quot;edgeStyle&quot;:&quot;elbowEdgeStyle&quot;,&quot;elbow&quot;:&quot;vertical&quot;,&quot;curved&quot;:0,&quot;rounded&quot;:0};" parent="xPAIn7jwNp17_iDfmiHx-3" vertex="1">
          <mxGeometry x="45" y="120" width="10" height="80" as="geometry" />
        </mxCell>
        <mxCell id="xPAIn7jwNp17_iDfmiHx-5" value="GLOBAL&lt;br&gt;&amp;nbsp; &amp;nbsp; &amp;nbsp;和&lt;br&gt;VERSION" style="html=1;align=left;spacingLeft=2;endArrow=block;rounded=0;edgeStyle=orthogonalEdgeStyle;curved=0;rounded=0;dashed=1;" parent="xPAIn7jwNp17_iDfmiHx-3" target="xPAIn7jwNp17_iDfmiHx-4" edge="1">
          <mxGeometry y="10" relative="1" as="geometry">
            <mxPoint x="55" y="140" as="sourcePoint" />
            <Array as="points">
              <mxPoint x="90" y="140" />
              <mxPoint x="90" y="180" />
            </Array>
            <mxPoint x="60" y="170.0000000000001" as="targetPoint" />
            <mxPoint as="offset" />
          </mxGeometry>
        </mxCell>
        <mxCell id="xPAIn7jwNp17_iDfmiHx-6" value="1. 运行时入口" style="html=1;verticalAlign=bottom;startArrow=oval;endArrow=block;startSize=8;edgeStyle=elbowEdgeStyle;elbow=vertical;curved=0;rounded=0;" parent="xyCMXDjUnVWn2i5L96T--1" source="xPAIn7jwNp17_iDfmiHx-0" target="xPAIn7jwNp17_iDfmiHx-2" edge="1">
          <mxGeometry x="-0.0096" relative="1" as="geometry">
            <mxPoint x="150" y="160" as="sourcePoint" />
            <mxPoint as="offset" />
          </mxGeometry>
        </mxCell>
        <mxCell id="xPAIn7jwNp17_iDfmiHx-7" value="src/init" style="shape=umlFrame;whiteSpace=wrap;html=1;pointerEvents=0;width=120;height=30;fillColor=#d5e8d4;strokeColor=#82b366;" parent="xyCMXDjUnVWn2i5L96T--1" vertex="1">
          <mxGeometry x="320" y="40" width="700" height="110" as="geometry" />
        </mxCell>
        <mxCell id="xPAIn7jwNp17_iDfmiHx-8" value="vui.js" style="shape=umlLifeline;perimeter=lifelinePerimeter;whiteSpace=wrap;html=1;container=1;dropTarget=0;collapsible=0;recursiveResize=0;outlineConnect=0;portConstraint=eastwest;newEdgeStyle={&quot;edgeStyle&quot;:&quot;elbowEdgeStyle&quot;,&quot;elbow&quot;:&quot;vertical&quot;,&quot;curved&quot;:0,&quot;rounded&quot;:0};size=60;fillColor=#d5e8d4;strokeColor=#82b366;strokeWidth=2;" parent="xyCMXDjUnVWn2i5L96T--1" vertex="1">
          <mxGeometry x="480" y="80" width="100" height="680" as="geometry" />
        </mxCell>
        <mxCell id="xPAIn7jwNp17_iDfmiHx-9" value="" style="html=1;points=[];perimeter=orthogonalPerimeter;outlineConnect=0;targetShapes=umlLifeline;portConstraint=eastwest;newEdgeStyle={&quot;edgeStyle&quot;:&quot;elbowEdgeStyle&quot;,&quot;elbow&quot;:&quot;vertical&quot;,&quot;curved&quot;:0,&quot;rounded&quot;:0};" parent="xPAIn7jwNp17_iDfmiHx-8" vertex="1">
          <mxGeometry x="45" y="200" width="10" height="80" as="geometry" />
        </mxCell>
        <mxCell id="xPAIn7jwNp17_iDfmiHx-10" value="vue.js" style="shape=umlLifeline;perimeter=lifelinePerimeter;whiteSpace=wrap;html=1;container=1;dropTarget=0;collapsible=0;recursiveResize=0;outlineConnect=0;portConstraint=eastwest;newEdgeStyle={&quot;edgeStyle&quot;:&quot;elbowEdgeStyle&quot;,&quot;elbow&quot;:&quot;vertical&quot;,&quot;curved&quot;:0,&quot;rounded&quot;:0};size=60;fillColor=#d5e8d4;strokeColor=#82b366;strokeWidth=2;" parent="xyCMXDjUnVWn2i5L96T--1" vertex="1">
          <mxGeometry x="620" y="80" width="100" height="680" as="geometry" />
        </mxCell>
        <mxCell id="xPAIn7jwNp17_iDfmiHx-11" value="" style="html=1;points=[];perimeter=orthogonalPerimeter;outlineConnect=0;targetShapes=umlLifeline;portConstraint=eastwest;newEdgeStyle={&quot;edgeStyle&quot;:&quot;elbowEdgeStyle&quot;,&quot;elbow&quot;:&quot;vertical&quot;,&quot;curved&quot;:0,&quot;rounded&quot;:0};" parent="xPAIn7jwNp17_iDfmiHx-10" vertex="1">
          <mxGeometry x="45" y="280" width="10" height="80" as="geometry" />
        </mxCell>
        <mxCell id="xPAIn7jwNp17_iDfmiHx-12" value="2. 初始化全局变量" style="html=1;verticalAlign=bottom;startArrow=oval;endArrow=block;startSize=8;edgeStyle=elbowEdgeStyle;elbow=vertical;curved=0;rounded=0;" parent="xyCMXDjUnVWn2i5L96T--1" source="xPAIn7jwNp17_iDfmiHx-1" target="xPAIn7jwNp17_iDfmiHx-4" edge="1">
          <mxGeometry relative="1" as="geometry">
            <mxPoint x="350" y="200" as="sourcePoint" />
          </mxGeometry>
        </mxCell>
        <mxCell id="xPAIn7jwNp17_iDfmiHx-13" value="&amp;nbsp; &amp;nbsp;VUI" style="shape=umlLifeline;perimeter=lifelinePerimeter;whiteSpace=wrap;html=1;container=1;dropTarget=0;collapsible=0;recursiveResize=0;outlineConnect=0;portConstraint=eastwest;newEdgeStyle={&quot;edgeStyle&quot;:&quot;elbowEdgeStyle&quot;,&quot;elbow&quot;:&quot;vertical&quot;,&quot;curved&quot;:0,&quot;rounded&quot;:0};participant=umlBoundary;size=60;fillColor=#fff2cc;strokeColor=#d6b656;strokeWidth=2;" parent="xyCMXDjUnVWn2i5L96T--1" vertex="1">
          <mxGeometry x="1200" y="80" width="70" height="680" as="geometry" />
        </mxCell>
        <mxCell id="xPAIn7jwNp17_iDfmiHx-14" value="" style="html=1;points=[];perimeter=orthogonalPerimeter;outlineConnect=0;targetShapes=umlLifeline;portConstraint=eastwest;newEdgeStyle={&quot;edgeStyle&quot;:&quot;elbowEdgeStyle&quot;,&quot;elbow&quot;:&quot;vertical&quot;,&quot;curved&quot;:0,&quot;rounded&quot;:0};" parent="xPAIn7jwNp17_iDfmiHx-13" vertex="1">
          <mxGeometry x="30" y="200" width="10" height="80" as="geometry" />
        </mxCell>
        <mxCell id="xPAIn7jwNp17_iDfmiHx-15" value="pwa.js" style="shape=umlLifeline;perimeter=lifelinePerimeter;whiteSpace=wrap;html=1;container=1;dropTarget=0;collapsible=0;recursiveResize=0;outlineConnect=0;portConstraint=eastwest;newEdgeStyle={&quot;edgeStyle&quot;:&quot;elbowEdgeStyle&quot;,&quot;elbow&quot;:&quot;vertical&quot;,&quot;curved&quot;:0,&quot;rounded&quot;:0};size=60;fillColor=#d5e8d4;strokeColor=#82b366;strokeWidth=2;" parent="xyCMXDjUnVWn2i5L96T--1" vertex="1">
          <mxGeometry x="760" y="80" width="100" height="680" as="geometry" />
        </mxCell>
        <mxCell id="xPAIn7jwNp17_iDfmiHx-16" value="" style="html=1;points=[];perimeter=orthogonalPerimeter;outlineConnect=0;targetShapes=umlLifeline;portConstraint=eastwest;newEdgeStyle={&quot;edgeStyle&quot;:&quot;elbowEdgeStyle&quot;,&quot;elbow&quot;:&quot;vertical&quot;,&quot;curved&quot;:0,&quot;rounded&quot;:0};" parent="xPAIn7jwNp17_iDfmiHx-15" vertex="1">
          <mxGeometry x="45" y="360" width="10" height="80" as="geometry" />
        </mxCell>
        <mxCell id="xPAIn7jwNp17_iDfmiHx-17" value="event.js" style="shape=umlLifeline;perimeter=lifelinePerimeter;whiteSpace=wrap;html=1;container=1;dropTarget=0;collapsible=0;recursiveResize=0;outlineConnect=0;portConstraint=eastwest;newEdgeStyle={&quot;edgeStyle&quot;:&quot;elbowEdgeStyle&quot;,&quot;elbow&quot;:&quot;vertical&quot;,&quot;curved&quot;:0,&quot;rounded&quot;:0};size=60;fillColor=#d5e8d4;strokeColor=#82b366;strokeWidth=2;" parent="xyCMXDjUnVWn2i5L96T--1" vertex="1">
          <mxGeometry x="900" y="80" width="100" height="680" as="geometry" />
        </mxCell>
        <mxCell id="xPAIn7jwNp17_iDfmiHx-18" value="" style="html=1;points=[];perimeter=orthogonalPerimeter;outlineConnect=0;targetShapes=umlLifeline;portConstraint=eastwest;newEdgeStyle={&quot;edgeStyle&quot;:&quot;elbowEdgeStyle&quot;,&quot;elbow&quot;:&quot;vertical&quot;,&quot;curved&quot;:0,&quot;rounded&quot;:0};" parent="xPAIn7jwNp17_iDfmiHx-17" vertex="1">
          <mxGeometry x="45" y="440" width="10" height="80" as="geometry" />
        </mxCell>
        <mxCell id="xPAIn7jwNp17_iDfmiHx-19" value="按键和消息" style="html=1;align=left;spacingLeft=2;endArrow=block;rounded=0;edgeStyle=orthogonalEdgeStyle;curved=0;rounded=0;dashed=1;" parent="xPAIn7jwNp17_iDfmiHx-17" target="xPAIn7jwNp17_iDfmiHx-18" edge="1">
          <mxGeometry x="0.0909" y="5" relative="1" as="geometry">
            <mxPoint x="55" y="450" as="sourcePoint" />
            <Array as="points">
              <mxPoint x="55" y="460" />
              <mxPoint x="85" y="460" />
              <mxPoint x="85" y="500" />
            </Array>
            <mxPoint x="60" y="480.0000000000002" as="targetPoint" />
            <mxPoint as="offset" />
          </mxGeometry>
        </mxCell>
        <mxCell id="xPAIn7jwNp17_iDfmiHx-20" value="canary.js" style="shape=umlLifeline;perimeter=lifelinePerimeter;whiteSpace=wrap;html=1;container=1;dropTarget=0;collapsible=0;recursiveResize=0;outlineConnect=0;portConstraint=eastwest;newEdgeStyle={&quot;edgeStyle&quot;:&quot;elbowEdgeStyle&quot;,&quot;elbow&quot;:&quot;vertical&quot;,&quot;curved&quot;:0,&quot;rounded&quot;:0};size=60;fillColor=#d5e8d4;strokeColor=#82b366;strokeWidth=2;" parent="xyCMXDjUnVWn2i5L96T--1" vertex="1">
          <mxGeometry x="1060" y="80" width="100" height="680" as="geometry" />
        </mxCell>
        <mxCell id="xPAIn7jwNp17_iDfmiHx-21" value="" style="html=1;points=[];perimeter=orthogonalPerimeter;outlineConnect=0;targetShapes=umlLifeline;portConstraint=eastwest;newEdgeStyle={&quot;edgeStyle&quot;:&quot;elbowEdgeStyle&quot;,&quot;elbow&quot;:&quot;vertical&quot;,&quot;curved&quot;:0,&quot;rounded&quot;:0};" parent="xPAIn7jwNp17_iDfmiHx-20" vertex="1">
          <mxGeometry x="45" y="520" width="10" height="80" as="geometry" />
        </mxCell>
        <mxCell id="xPAIn7jwNp17_iDfmiHx-22" value="调用 Api 上报灰度状态" style="html=1;align=left;spacingLeft=2;endArrow=block;rounded=0;edgeStyle=orthogonalEdgeStyle;curved=0;rounded=0;dashed=1;" parent="xPAIn7jwNp17_iDfmiHx-20" target="xPAIn7jwNp17_iDfmiHx-21" edge="1">
          <mxGeometry y="5" relative="1" as="geometry">
            <mxPoint x="55" y="540" as="sourcePoint" />
            <Array as="points">
              <mxPoint x="85" y="540" />
              <mxPoint x="85" y="580" />
            </Array>
            <mxPoint x="60" y="570.0000000000002" as="targetPoint" />
            <mxPoint as="offset" />
          </mxGeometry>
        </mxCell>
        <mxCell id="xPAIn7jwNp17_iDfmiHx-23" value="3. 初始化 VUI 组件库" style="html=1;verticalAlign=bottom;startArrow=oval;endArrow=block;startSize=8;edgeStyle=elbowEdgeStyle;elbow=vertical;curved=0;rounded=0;" parent="xyCMXDjUnVWn2i5L96T--1" source="xPAIn7jwNp17_iDfmiHx-1" target="xPAIn7jwNp17_iDfmiHx-9" edge="1">
          <mxGeometry relative="1" as="geometry">
            <mxPoint x="465" y="240" as="sourcePoint" />
          </mxGeometry>
        </mxCell>
        <mxCell id="xPAIn7jwNp17_iDfmiHx-24" value="安装 VUI、初始化主题、初始化对比度、初始化多语言 等等" style="html=1;verticalAlign=bottom;startArrow=oval;endArrow=block;startSize=8;edgeStyle=elbowEdgeStyle;elbow=vertical;curved=0;rounded=0;dashed=1;" parent="xyCMXDjUnVWn2i5L96T--1" source="xPAIn7jwNp17_iDfmiHx-9" target="xPAIn7jwNp17_iDfmiHx-14" edge="1">
          <mxGeometry relative="1" as="geometry">
            <mxPoint x="1195" y="240" as="sourcePoint" />
          </mxGeometry>
        </mxCell>
        <mxCell id="xPAIn7jwNp17_iDfmiHx-25" value="4. 初始化 Vue 脚手架" style="html=1;verticalAlign=bottom;startArrow=oval;endArrow=block;startSize=8;edgeStyle=elbowEdgeStyle;elbow=vertical;curved=0;rounded=0;" parent="xyCMXDjUnVWn2i5L96T--1" source="xPAIn7jwNp17_iDfmiHx-1" target="xPAIn7jwNp17_iDfmiHx-11" edge="1">
          <mxGeometry relative="1" as="geometry">
            <mxPoint x="605" y="320" as="sourcePoint" />
          </mxGeometry>
        </mxCell>
        <mxCell id="xPAIn7jwNp17_iDfmiHx-26" value="&amp;nbsp; &amp;nbsp;Vue" style="shape=umlLifeline;perimeter=lifelinePerimeter;whiteSpace=wrap;html=1;container=1;dropTarget=0;collapsible=0;recursiveResize=0;outlineConnect=0;portConstraint=eastwest;newEdgeStyle={&quot;edgeStyle&quot;:&quot;elbowEdgeStyle&quot;,&quot;elbow&quot;:&quot;vertical&quot;,&quot;curved&quot;:0,&quot;rounded&quot;:0};participant=umlBoundary;size=60;fillColor=#fff2cc;strokeColor=#d6b656;strokeWidth=2;" parent="xyCMXDjUnVWn2i5L96T--1" vertex="1">
          <mxGeometry x="1310" y="80" width="70" height="680" as="geometry" />
        </mxCell>
        <mxCell id="xPAIn7jwNp17_iDfmiHx-27" value="" style="html=1;points=[];perimeter=orthogonalPerimeter;outlineConnect=0;targetShapes=umlLifeline;portConstraint=eastwest;newEdgeStyle={&quot;edgeStyle&quot;:&quot;elbowEdgeStyle&quot;,&quot;elbow&quot;:&quot;vertical&quot;,&quot;curved&quot;:0,&quot;rounded&quot;:0};" parent="xPAIn7jwNp17_iDfmiHx-26" vertex="1">
          <mxGeometry x="30" y="280" width="10" height="80" as="geometry" />
        </mxCell>
        <mxCell id="xPAIn7jwNp17_iDfmiHx-28" value="注册&amp;nbsp;i18n、注册&amp;nbsp;router 路由、注册 vuex 仓库、注册 VUI 的&amp;nbsp;focusManager 焦点管理器；最终挂载到&amp;nbsp;#app 节点上" style="html=1;verticalAlign=bottom;startArrow=oval;endArrow=block;startSize=8;edgeStyle=elbowEdgeStyle;elbow=vertical;curved=0;rounded=0;dashed=1;" parent="xyCMXDjUnVWn2i5L96T--1" source="xPAIn7jwNp17_iDfmiHx-11" target="xPAIn7jwNp17_iDfmiHx-27" edge="1">
          <mxGeometry relative="1" as="geometry">
            <mxPoint x="1315" y="360" as="sourcePoint" />
          </mxGeometry>
        </mxCell>
        <mxCell id="xPAIn7jwNp17_iDfmiHx-29" value="5.&amp;nbsp;初始化 PWA 消息监听" style="html=1;verticalAlign=bottom;startArrow=oval;endArrow=block;startSize=8;edgeStyle=elbowEdgeStyle;elbow=vertical;curved=0;rounded=0;" parent="xyCMXDjUnVWn2i5L96T--1" source="xPAIn7jwNp17_iDfmiHx-1" target="xPAIn7jwNp17_iDfmiHx-16" edge="1">
          <mxGeometry relative="1" as="geometry">
            <mxPoint x="745" y="440" as="sourcePoint" />
          </mxGeometry>
        </mxCell>
        <mxCell id="xPAIn7jwNp17_iDfmiHx-30" value="&amp;nbsp; &amp;nbsp; &amp;nbsp;offline-plugin" style="shape=umlLifeline;perimeter=lifelinePerimeter;whiteSpace=wrap;html=1;container=1;dropTarget=0;collapsible=0;recursiveResize=0;outlineConnect=0;portConstraint=eastwest;newEdgeStyle={&quot;edgeStyle&quot;:&quot;elbowEdgeStyle&quot;,&quot;elbow&quot;:&quot;vertical&quot;,&quot;curved&quot;:0,&quot;rounded&quot;:0};participant=umlBoundary;size=60;fillColor=#fff2cc;strokeColor=#d6b656;strokeWidth=2;" parent="xyCMXDjUnVWn2i5L96T--1" vertex="1">
          <mxGeometry x="1420" y="80" width="90" height="680" as="geometry" />
        </mxCell>
        <mxCell id="xPAIn7jwNp17_iDfmiHx-31" value="" style="html=1;points=[];perimeter=orthogonalPerimeter;outlineConnect=0;targetShapes=umlLifeline;portConstraint=eastwest;newEdgeStyle={&quot;edgeStyle&quot;:&quot;elbowEdgeStyle&quot;,&quot;elbow&quot;:&quot;vertical&quot;,&quot;curved&quot;:0,&quot;rounded&quot;:0};" parent="xPAIn7jwNp17_iDfmiHx-30" vertex="1">
          <mxGeometry x="40" y="360" width="10" height="80" as="geometry" />
        </mxCell>
        <mxCell id="xPAIn7jwNp17_iDfmiHx-32" value="调用&amp;nbsp;runtime 模块的 install 方法注册相关依赖，然后监听&amp;nbsp;onUpdateReady 和&amp;nbsp;onUpdated 等消息进行下载更新" style="html=1;verticalAlign=bottom;startArrow=oval;endArrow=block;startSize=8;edgeStyle=elbowEdgeStyle;elbow=vertical;curved=0;rounded=0;dashed=1;" parent="xyCMXDjUnVWn2i5L96T--1" source="xPAIn7jwNp17_iDfmiHx-16" target="xPAIn7jwNp17_iDfmiHx-31" edge="1">
          <mxGeometry relative="1" as="geometry">
            <mxPoint x="1440" y="440" as="sourcePoint" />
          </mxGeometry>
        </mxCell>
        <mxCell id="xPAIn7jwNp17_iDfmiHx-33" value="6.&amp;nbsp;初始化 Event 全局事件注册" style="html=1;verticalAlign=bottom;startArrow=oval;endArrow=block;startSize=8;edgeStyle=elbowEdgeStyle;elbow=vertical;curved=0;rounded=0;" parent="xyCMXDjUnVWn2i5L96T--1" source="xPAIn7jwNp17_iDfmiHx-1" target="xPAIn7jwNp17_iDfmiHx-18" edge="1">
          <mxGeometry relative="1" as="geometry">
            <mxPoint x="885" y="520" as="sourcePoint" />
          </mxGeometry>
        </mxCell>
        <mxCell id="xPAIn7jwNp17_iDfmiHx-34" value="7.&amp;nbsp;初始化 Canary 灰度部署参数" style="html=1;verticalAlign=bottom;startArrow=oval;endArrow=block;startSize=8;edgeStyle=elbowEdgeStyle;elbow=vertical;curved=0;rounded=0;" parent="xyCMXDjUnVWn2i5L96T--1" source="xPAIn7jwNp17_iDfmiHx-1" target="xPAIn7jwNp17_iDfmiHx-21" edge="1">
          <mxGeometry relative="1" as="geometry">
            <mxPoint x="1025" y="600" as="sourcePoint" />
          </mxGeometry>
        </mxCell>
      </root>
    </mxGraphModel>
  </diagram>
  <diagram name="编译时序图" id="82sZlarno4eNu2xT1E5H">
    <mxGraphModel dx="1434" dy="756" grid="1" gridSize="10" guides="1" tooltips="1" connect="1" arrows="1" fold="1" page="1" pageScale="1" pageWidth="850" pageHeight="1100" math="0" shadow="0">
      <root>
        <mxCell id="GU_mBHrIToQc0tVzpLK1-0" />
        <mxCell id="GU_mBHrIToQc0tVzpLK1-1" parent="GU_mBHrIToQc0tVzpLK1-0" />
        <mxCell id="DhAZjV0zIAe2sDcWl1LE-0" value="" style="shape=umlLifeline;perimeter=lifelinePerimeter;whiteSpace=wrap;html=1;container=1;dropTarget=0;collapsible=0;recursiveResize=0;outlineConnect=0;portConstraint=eastwest;newEdgeStyle={&quot;edgeStyle&quot;:&quot;elbowEdgeStyle&quot;,&quot;elbow&quot;:&quot;vertical&quot;,&quot;curved&quot;:0,&quot;rounded&quot;:0};participant=umlActor;size=60;fillColor=#f8cecc;strokeColor=#b85450;strokeWidth=2;" parent="GU_mBHrIToQc0tVzpLK1-1" vertex="1">
          <mxGeometry x="40" y="80" width="40" height="320" as="geometry" />
        </mxCell>
        <mxCell id="DhAZjV0zIAe2sDcWl1LE-1" value="package.json" style="shape=umlLifeline;perimeter=lifelinePerimeter;whiteSpace=wrap;html=1;container=1;dropTarget=0;collapsible=0;recursiveResize=0;outlineConnect=0;portConstraint=eastwest;newEdgeStyle={&quot;edgeStyle&quot;:&quot;elbowEdgeStyle&quot;,&quot;elbow&quot;:&quot;vertical&quot;,&quot;curved&quot;:0,&quot;rounded&quot;:0};size=60;fillColor=#d5e8d4;strokeColor=#82b366;strokeWidth=2;" parent="GU_mBHrIToQc0tVzpLK1-1" vertex="1">
          <mxGeometry x="200" y="80" width="100" height="320" as="geometry" />
        </mxCell>
        <mxCell id="DhAZjV0zIAe2sDcWl1LE-2" value="" style="html=1;points=[];perimeter=orthogonalPerimeter;outlineConnect=0;targetShapes=umlLifeline;portConstraint=eastwest;newEdgeStyle={&quot;edgeStyle&quot;:&quot;elbowEdgeStyle&quot;,&quot;elbow&quot;:&quot;vertical&quot;,&quot;curved&quot;:0,&quot;rounded&quot;:0};" parent="DhAZjV0zIAe2sDcWl1LE-1" vertex="1">
          <mxGeometry x="45" y="80" width="10" height="40" as="geometry" />
        </mxCell>
        <mxCell id="DhAZjV0zIAe2sDcWl1LE-7" value="1. 执行 yarn dev/build 打包命令" style="html=1;verticalAlign=bottom;startArrow=oval;endArrow=block;startSize=8;edgeStyle=elbowEdgeStyle;elbow=vertical;curved=0;rounded=0;" parent="GU_mBHrIToQc0tVzpLK1-1" source="DhAZjV0zIAe2sDcWl1LE-0" target="DhAZjV0zIAe2sDcWl1LE-2" edge="1">
          <mxGeometry x="-0.0096" relative="1" as="geometry">
            <mxPoint x="150" y="160" as="sourcePoint" />
            <mxPoint as="offset" />
          </mxGeometry>
        </mxCell>
        <mxCell id="DhAZjV0zIAe2sDcWl1LE-10" value="build" style="shape=umlFrame;whiteSpace=wrap;html=1;pointerEvents=0;width=60;height=30;fillColor=#d5e8d4;strokeColor=#82b366;" parent="GU_mBHrIToQc0tVzpLK1-1" vertex="1">
          <mxGeometry x="340" y="40" width="260" height="110" as="geometry" />
        </mxCell>
        <mxCell id="DhAZjV0zIAe2sDcWl1LE-16" value="webpack.dev.conf.js&lt;br&gt;or&lt;br&gt;webpack.build.conf.js" style="shape=umlLifeline;perimeter=lifelinePerimeter;whiteSpace=wrap;html=1;container=1;dropTarget=0;collapsible=0;recursiveResize=0;outlineConnect=0;portConstraint=eastwest;newEdgeStyle={&quot;edgeStyle&quot;:&quot;elbowEdgeStyle&quot;,&quot;elbow&quot;:&quot;vertical&quot;,&quot;curved&quot;:0,&quot;rounded&quot;:0};size=60;fillColor=#d5e8d4;strokeColor=#82b366;strokeWidth=2;" parent="GU_mBHrIToQc0tVzpLK1-1" vertex="1">
          <mxGeometry x="400" y="80" width="140" height="320" as="geometry" />
        </mxCell>
        <mxCell id="DhAZjV0zIAe2sDcWl1LE-30" value="" style="html=1;points=[];perimeter=orthogonalPerimeter;outlineConnect=0;targetShapes=umlLifeline;portConstraint=eastwest;newEdgeStyle={&quot;edgeStyle&quot;:&quot;elbowEdgeStyle&quot;,&quot;elbow&quot;:&quot;vertical&quot;,&quot;curved&quot;:0,&quot;rounded&quot;:0};" parent="DhAZjV0zIAe2sDcWl1LE-16" vertex="1">
          <mxGeometry x="65" y="140" width="10" height="40" as="geometry" />
        </mxCell>
        <mxCell id="DhAZjV0zIAe2sDcWl1LE-26" value="2. 读取 dev 或 build 的配置文件" style="html=1;verticalAlign=bottom;startArrow=oval;endArrow=block;startSize=8;edgeStyle=elbowEdgeStyle;elbow=vertical;curved=0;rounded=0;" parent="GU_mBHrIToQc0tVzpLK1-1" target="DhAZjV0zIAe2sDcWl1LE-16" edge="1">
          <mxGeometry x="0.0046" relative="1" as="geometry">
            <mxPoint x="250" y="240" as="sourcePoint" />
            <mxPoint x="405" y="240" as="targetPoint" />
            <mxPoint as="offset" />
          </mxGeometry>
        </mxCell>
        <mxCell id="DhAZjV0zIAe2sDcWl1LE-29" value="4. 启动本地 Server 或 返回编译产物" style="html=1;verticalAlign=bottom;endArrow=open;dashed=1;endSize=8;edgeStyle=elbowEdgeStyle;elbow=vertical;curved=0;rounded=0;entryX=0.499;entryY=0.855;entryDx=0;entryDy=0;entryPerimeter=0;" parent="GU_mBHrIToQc0tVzpLK1-1" edge="1">
          <mxGeometry relative="1" as="geometry">
            <mxPoint x="674" y="350" as="sourcePoint" />
            <mxPoint x="59.960000000000036" y="350.4000000000001" as="targetPoint" />
          </mxGeometry>
        </mxCell>
        <mxCell id="DhAZjV0zIAe2sDcWl1LE-31" value="&amp;nbsp; &amp;nbsp;plugins" style="shape=umlLifeline;perimeter=lifelinePerimeter;whiteSpace=wrap;html=1;container=1;dropTarget=0;collapsible=0;recursiveResize=0;outlineConnect=0;portConstraint=eastwest;newEdgeStyle={&quot;edgeStyle&quot;:&quot;elbowEdgeStyle&quot;,&quot;elbow&quot;:&quot;vertical&quot;,&quot;curved&quot;:0,&quot;rounded&quot;:0};participant=umlBoundary;size=60;fillColor=#fff2cc;strokeColor=#d6b656;strokeWidth=2;" parent="GU_mBHrIToQc0tVzpLK1-1" vertex="1">
          <mxGeometry x="640" y="80" width="70" height="320" as="geometry" />
        </mxCell>
        <mxCell id="DhAZjV0zIAe2sDcWl1LE-32" value="" style="html=1;points=[];perimeter=orthogonalPerimeter;outlineConnect=0;targetShapes=umlLifeline;portConstraint=eastwest;newEdgeStyle={&quot;edgeStyle&quot;:&quot;elbowEdgeStyle&quot;,&quot;elbow&quot;:&quot;vertical&quot;,&quot;curved&quot;:0,&quot;rounded&quot;:0};" parent="DhAZjV0zIAe2sDcWl1LE-31" vertex="1">
          <mxGeometry x="30" y="170" width="10" height="80" as="geometry" />
        </mxCell>
        <mxCell id="DhAZjV0zIAe2sDcWl1LE-36" value="3. 加载 webpack 的插件" style="html=1;verticalAlign=bottom;startArrow=oval;endArrow=block;startSize=8;edgeStyle=elbowEdgeStyle;elbow=vertical;curved=0;rounded=0;" parent="GU_mBHrIToQc0tVzpLK1-1" edge="1">
          <mxGeometry x="0.0046" relative="1" as="geometry">
            <mxPoint x="470" y="280" as="sourcePoint" />
            <mxPoint x="670" y="280" as="targetPoint" />
            <mxPoint as="offset" />
          </mxGeometry>
        </mxCell>
      </root>
    </mxGraphModel>
  </diagram>
  <diagram name="Context Diagram 上下文图" id="qZXMowa1UTwpHirZaIaV">
    <mxGraphModel dx="2261" dy="1933" grid="1" gridSize="10" guides="1" tooltips="1" connect="1" arrows="1" fold="1" page="1" pageScale="1" pageWidth="827" pageHeight="1169" math="0" shadow="0">
      <root>
        <mxCell id="0" />
        <mxCell id="1" parent="0" />
        <mxCell id="pdgIalMvOr3BezIeaZ6w-1" style="rounded=0;orthogonalLoop=1;jettySize=auto;html=1;exitX=0.5;exitY=1;exitDx=0;exitDy=0;exitPerimeter=0;entryX=0.5;entryY=0;entryDx=0;entryDy=0;entryPerimeter=0;dashed=1;snapToPoint=0;" parent="1" source="pdgIalMvOr3BezIeaZ6w-5" target="pdgIalMvOr3BezIeaZ6w-8" edge="1">
          <mxGeometry relative="1" as="geometry">
            <Array as="points" />
          </mxGeometry>
        </mxCell>
        <mxCell id="pdgIalMvOr3BezIeaZ6w-2" value="Click App Icon" style="edgeLabel;html=1;align=center;verticalAlign=middle;resizable=0;points=[];snapToPoint=0;" parent="pdgIalMvOr3BezIeaZ6w-1" vertex="1" connectable="0">
          <mxGeometry x="-0.2552" y="1" relative="1" as="geometry">
            <mxPoint x="-61" y="2" as="offset" />
          </mxGeometry>
        </mxCell>
        <object c4Name="User" c4Type="Person" c4Description="Users of TV." label="&lt;font style=&quot;font-size: 16px&quot;&gt;&lt;b&gt;%c4Name%&lt;/b&gt;&lt;/font&gt;&lt;div&gt;[%c4Type%]&lt;/div&gt;&lt;br&gt;&lt;div&gt;&lt;font style=&quot;font-size: 11px&quot;&gt;&lt;font color=&quot;#cccccc&quot;&gt;%c4Description%&lt;/font&gt;&lt;/div&gt;" placeholders="1" id="pdgIalMvOr3BezIeaZ6w-5">
          <mxCell style="html=1;fontSize=11;dashed=0;whitespace=wrap;fillColor=#083F75;strokeColor=#06315C;fontColor=#ffffff;shape=mxgraph.c4.person2;align=center;metaEdit=1;points=[[0.5,0,0],[1,0.5,0],[1,0.75,0],[0.75,1,0],[0.5,1,0],[0.25,1,0],[0,0.75,0],[0,0.5,0]];resizable=0;snapToPoint=0;" parent="1" vertex="1">
            <mxGeometry x="-580" y="-1120" width="200" height="180" as="geometry" />
          </mxCell>
        </object>
        <mxCell id="pdgIalMvOr3BezIeaZ6w-6" style="edgeStyle=none;rounded=0;orthogonalLoop=1;jettySize=auto;html=1;exitX=1;exitY=0.5;exitDx=0;exitDy=0;exitPerimeter=0;entryX=0;entryY=0.5;entryDx=0;entryDy=0;entryPerimeter=0;dashed=1;snapToPoint=0;" parent="1" source="pdgIalMvOr3BezIeaZ6w-8" target="pdgIalMvOr3BezIeaZ6w-15" edge="1">
          <mxGeometry relative="1" as="geometry" />
        </mxCell>
        <mxCell id="pdgIalMvOr3BezIeaZ6w-7" value="Launch Applications" style="edgeLabel;html=1;align=center;verticalAlign=middle;resizable=0;points=[];snapToPoint=0;" parent="pdgIalMvOr3BezIeaZ6w-6" vertex="1" connectable="0">
          <mxGeometry x="-0.3461" y="-1" relative="1" as="geometry">
            <mxPoint x="28" y="-11" as="offset" />
          </mxGeometry>
        </mxCell>
        <object placeholders="1" c4Name="UI Launcher" c4Type="Container: Vue" c4Description="Home page of the TV, showing the list of major apps and entrances." label="&lt;font style=&quot;font-size: 16px&quot;&gt;&lt;b&gt;%c4Name%&lt;/b&gt;&lt;/font&gt;&lt;div&gt;[%c4Type%]&lt;/div&gt;&lt;br&gt;&lt;div&gt;&lt;font style=&quot;font-size: 11px&quot;&gt;&lt;font color=&quot;#cccccc&quot;&gt;%c4Description%&lt;/font&gt;&lt;/div&gt;" id="pdgIalMvOr3BezIeaZ6w-8">
          <mxCell style="rounded=1;whiteSpace=wrap;html=1;labelBackgroundColor=none;fillColor=#8C8496;fontColor=#333333;align=center;arcSize=10;strokeColor=#736782;metaEdit=1;resizable=0;points=[[0.25,0,0],[0.5,0,0],[0.75,0,0],[1,0.25,0],[1,0.5,0],[1,0.75,0],[0.75,1,0],[0.5,1,0],[0.25,1,0],[0,0.75,0],[0,0.5,0],[0,0.25,0]];snapToPoint=0;" parent="1" vertex="1">
            <mxGeometry x="-800" y="-860" width="240" height="120" as="geometry" />
          </mxCell>
        </object>
        <object placeholders="1" c4Name="AWS" c4Type="Server System" c4Description="Methods related to storing application static files and gray scale deployment." label="&lt;font style=&quot;font-size: 16px&quot;&gt;&lt;b&gt;%c4Name%&lt;/b&gt;&lt;/font&gt;&lt;div&gt;[%c4Type%]&lt;/div&gt;&lt;br&gt;&lt;div&gt;&lt;font style=&quot;font-size: 11px&quot;&gt;&lt;font color=&quot;#cccccc&quot;&gt;%c4Description%&lt;/font&gt;&lt;/div&gt;" id="pdgIalMvOr3BezIeaZ6w-9">
          <mxCell style="rounded=1;whiteSpace=wrap;html=1;labelBackgroundColor=none;fillColor=#8C8496;align=center;arcSize=10;strokeColor=#736782;metaEdit=1;resizable=0;points=[[0.25,0,0],[0.5,0,0],[0.75,0,0],[1,0.25,0],[1,0.5,0],[1,0.75,0],[0.75,1,0],[0.5,1,0],[0.25,1,0],[0,0.75,0],[0,0.5,0],[0,0.25,0]];fontColor=#333333;snapToPoint=0;" parent="1" vertex="1">
            <mxGeometry y="-860" width="240" height="120" as="geometry" />
          </mxCell>
        </object>
        <mxCell id="pdgIalMvOr3BezIeaZ6w-10" style="edgeStyle=none;rounded=0;orthogonalLoop=1;jettySize=auto;html=1;exitX=1;exitY=0.5;exitDx=0;exitDy=0;exitPerimeter=0;entryX=0;entryY=0.5;entryDx=0;entryDy=0;entryPerimeter=0;dashed=1;snapToPoint=0;" parent="1" source="pdgIalMvOr3BezIeaZ6w-15" target="pdgIalMvOr3BezIeaZ6w-9" edge="1">
          <mxGeometry relative="1" as="geometry" />
        </mxCell>
        <mxCell id="pdgIalMvOr3BezIeaZ6w-11" value="Loading Cloud Applications" style="edgeLabel;html=1;align=center;verticalAlign=middle;resizable=0;points=[];snapToPoint=0;" parent="pdgIalMvOr3BezIeaZ6w-10" vertex="1" connectable="0">
          <mxGeometry x="0.3382" y="-2" relative="1" as="geometry">
            <mxPoint x="-30" y="-12" as="offset" />
          </mxGeometry>
        </mxCell>
        <object placeholders="1" c4Name="VIDAA Free &amp; VIDAA Store" c4Type="Container: Vue" c4Description="Showcase media and application in the form of HeroBanner and WaterFall." label="&lt;font style=&quot;font-size: 16px&quot;&gt;&lt;b&gt;%c4Name%&lt;/b&gt;&lt;/font&gt;&lt;div&gt;[%c4Type%]&lt;/div&gt;&lt;br&gt;&lt;div&gt;&lt;font style=&quot;font-size: 11px&quot;&gt;&lt;font color=&quot;#cccccc&quot;&gt;%c4Description%&lt;/font&gt;&lt;/div&gt;" id="pdgIalMvOr3BezIeaZ6w-14">
          <mxCell style="rounded=1;whiteSpace=wrap;html=1;labelBackgroundColor=none;fillColor=#3162AF;fontColor=#ffffff;align=center;arcSize=10;strokeColor=#0D5091;metaEdit=1;resizable=0;points=[[0.25,0,0],[0.5,0,0],[0.75,0,0],[1,0.25,0],[1,0.5,0],[1,0.75,0],[0.75,1,0],[0.5,1,0],[0.25,1,0],[0,0.75,0],[0,0.5,0],[0,0.25,0]];snapToPoint=0;" parent="1" vertex="1">
            <mxGeometry x="-400" y="-665" width="240" height="120" as="geometry" />
          </mxCell>
        </object>
        <object placeholders="1" c4Name="Odin/Vewd Broswer" c4Type="Browser in TV" c4Description="Provide streaming media parsing protocol stack." label="&lt;font style=&quot;font-size: 16px&quot;&gt;&lt;b&gt;%c4Name%&lt;/b&gt;&lt;/font&gt;&lt;div&gt;[%c4Type%]&lt;/div&gt;&lt;br&gt;&lt;div&gt;&lt;font style=&quot;font-size: 11px&quot;&gt;&lt;font color=&quot;#cccccc&quot;&gt;%c4Description%&lt;/font&gt;&lt;/div&gt;" id="pdgIalMvOr3BezIeaZ6w-15">
          <mxCell style="rounded=1;whiteSpace=wrap;html=1;labelBackgroundColor=none;fillColor=#8C8496;fontColor=#333333;align=center;arcSize=10;strokeColor=#736782;metaEdit=1;resizable=0;points=[[0.25,0,0],[0.5,0,0],[0.75,0,0],[1,0.25,0],[1,0.5,0],[1,0.75,0],[0.75,1,0],[0.5,1,0],[0.25,1,0],[0,0.75,0],[0,0.5,0],[0,0.25,0]];snapToPoint=0;" parent="1" vertex="1">
            <mxGeometry x="-400" y="-860" width="240" height="120" as="geometry" />
          </mxCell>
        </object>
        <mxCell id="pdgIalMvOr3BezIeaZ6w-16" value="Legend" style="shape=table;startSize=30;container=1;collapsible=0;childLayout=tableLayout;fontSize=16;align=left;verticalAlign=top;fillColor=none;strokeColor=none;fontColor=#4D4D4D;fontStyle=1;spacingLeft=6;spacing=0;resizable=0;rounded=1;labelBackgroundColor=none;hachureGap=4;fontFamily=Architects Daughter;fontSource=https%3A%2F%2Ffonts.googleapis.com%2Fcss%3Ffamily%3DArchitects%2BDaughter;html=1;snapToPoint=0;" parent="1" vertex="1">
          <mxGeometry x="-160" y="-1120" width="180" height="180" as="geometry" />
        </mxCell>
        <mxCell id="pdgIalMvOr3BezIeaZ6w-17" value="" style="shape=tableRow;horizontal=0;startSize=0;swimlaneHead=0;swimlaneBody=0;strokeColor=inherit;top=0;left=0;bottom=0;right=0;collapsible=0;dropTarget=0;fillColor=none;points=[[0,0.5],[1,0.5]];portConstraint=eastwest;fontSize=12;rounded=1;labelBackgroundColor=none;hachureGap=4;fontFamily=Architects Daughter;fontSource=https%3A%2F%2Ffonts.googleapis.com%2Fcss%3Ffamily%3DArchitects%2BDaughter;fontColor=#ffffff;html=1;snapToPoint=0;" parent="pdgIalMvOr3BezIeaZ6w-16" vertex="1">
          <mxGeometry y="30" width="180" height="30" as="geometry" />
        </mxCell>
        <mxCell id="pdgIalMvOr3BezIeaZ6w-18" value="Person" style="shape=partialRectangle;html=1;whiteSpace=wrap;connectable=0;strokeColor=inherit;overflow=hidden;fillColor=#083F75;top=0;left=0;bottom=0;right=0;pointerEvents=1;fontSize=12;align=left;fontColor=#FFFFFF;gradientColor=none;spacingLeft=10;spacingRight=4;rounded=1;labelBackgroundColor=none;hachureGap=4;fontFamily=Architects Daughter;fontSource=https%3A%2F%2Ffonts.googleapis.com%2Fcss%3Ffamily%3DArchitects%2BDaughter;snapToPoint=0;" parent="pdgIalMvOr3BezIeaZ6w-17" vertex="1">
          <mxGeometry width="180" height="30" as="geometry">
            <mxRectangle width="180" height="30" as="alternateBounds" />
          </mxGeometry>
        </mxCell>
        <mxCell id="pdgIalMvOr3BezIeaZ6w-19" value="" style="shape=tableRow;horizontal=0;startSize=0;swimlaneHead=0;swimlaneBody=0;strokeColor=inherit;top=0;left=0;bottom=0;right=0;collapsible=0;dropTarget=0;fillColor=none;points=[[0,0.5],[1,0.5]];portConstraint=eastwest;fontSize=12;rounded=1;labelBackgroundColor=none;hachureGap=4;fontFamily=Architects Daughter;fontSource=https%3A%2F%2Ffonts.googleapis.com%2Fcss%3Ffamily%3DArchitects%2BDaughter;fontColor=#ffffff;html=1;snapToPoint=0;" parent="pdgIalMvOr3BezIeaZ6w-16" vertex="1">
          <mxGeometry y="60" width="180" height="30" as="geometry" />
        </mxCell>
        <mxCell id="pdgIalMvOr3BezIeaZ6w-20" value="Software System" style="shape=partialRectangle;html=1;whiteSpace=wrap;connectable=0;strokeColor=inherit;overflow=hidden;fillColor=#3162AF;top=0;left=0;bottom=0;right=0;pointerEvents=1;fontSize=12;align=left;fontColor=#FFFFFF;gradientColor=none;spacingLeft=10;spacingRight=4;rounded=1;labelBackgroundColor=none;hachureGap=4;fontFamily=Architects Daughter;fontSource=https%3A%2F%2Ffonts.googleapis.com%2Fcss%3Ffamily%3DArchitects%2BDaughter;snapToPoint=0;" parent="pdgIalMvOr3BezIeaZ6w-19" vertex="1">
          <mxGeometry width="180" height="30" as="geometry">
            <mxRectangle width="180" height="30" as="alternateBounds" />
          </mxGeometry>
        </mxCell>
        <mxCell id="pdgIalMvOr3BezIeaZ6w-21" value="" style="shape=tableRow;horizontal=0;startSize=0;swimlaneHead=0;swimlaneBody=0;strokeColor=inherit;top=0;left=0;bottom=0;right=0;collapsible=0;dropTarget=0;fillColor=none;points=[[0,0.5],[1,0.5]];portConstraint=eastwest;fontSize=12;rounded=1;labelBackgroundColor=none;hachureGap=4;fontFamily=Architects Daughter;fontSource=https%3A%2F%2Ffonts.googleapis.com%2Fcss%3Ffamily%3DArchitects%2BDaughter;fontColor=#ffffff;html=1;snapToPoint=0;" parent="pdgIalMvOr3BezIeaZ6w-16" vertex="1">
          <mxGeometry y="90" width="180" height="30" as="geometry" />
        </mxCell>
        <mxCell id="pdgIalMvOr3BezIeaZ6w-22" value="Container" style="shape=partialRectangle;html=1;whiteSpace=wrap;connectable=0;strokeColor=inherit;overflow=hidden;fillColor=#23A2D9;top=0;left=0;bottom=0;right=0;pointerEvents=1;fontSize=12;align=left;fontColor=#FFFFFF;gradientColor=none;spacingLeft=10;spacingRight=4;rounded=1;labelBackgroundColor=none;hachureGap=4;fontFamily=Architects Daughter;fontSource=https%3A%2F%2Ffonts.googleapis.com%2Fcss%3Ffamily%3DArchitects%2BDaughter;snapToPoint=0;" parent="pdgIalMvOr3BezIeaZ6w-21" vertex="1">
          <mxGeometry width="180" height="30" as="geometry">
            <mxRectangle width="180" height="30" as="alternateBounds" />
          </mxGeometry>
        </mxCell>
        <mxCell id="pdgIalMvOr3BezIeaZ6w-23" value="" style="shape=tableRow;horizontal=0;startSize=0;swimlaneHead=0;swimlaneBody=0;strokeColor=inherit;top=0;left=0;bottom=0;right=0;collapsible=0;dropTarget=0;fillColor=none;points=[[0,0.5],[1,0.5]];portConstraint=eastwest;fontSize=12;rounded=1;labelBackgroundColor=none;hachureGap=4;fontFamily=Architects Daughter;fontSource=https%3A%2F%2Ffonts.googleapis.com%2Fcss%3Ffamily%3DArchitects%2BDaughter;fontColor=#ffffff;html=1;snapToPoint=0;" parent="pdgIalMvOr3BezIeaZ6w-16" vertex="1">
          <mxGeometry y="120" width="180" height="30" as="geometry" />
        </mxCell>
        <mxCell id="pdgIalMvOr3BezIeaZ6w-24" value="Component" style="shape=partialRectangle;html=1;whiteSpace=wrap;connectable=0;strokeColor=inherit;overflow=hidden;fillColor=#63BEF2;top=0;left=0;bottom=0;right=0;pointerEvents=1;fontSize=12;align=left;fontColor=#FFFFFF;gradientColor=none;spacingLeft=10;spacingRight=4;rounded=1;labelBackgroundColor=none;hachureGap=4;fontFamily=Architects Daughter;fontSource=https%3A%2F%2Ffonts.googleapis.com%2Fcss%3Ffamily%3DArchitects%2BDaughter;snapToPoint=0;" parent="pdgIalMvOr3BezIeaZ6w-23" vertex="1">
          <mxGeometry width="180" height="30" as="geometry">
            <mxRectangle width="180" height="30" as="alternateBounds" />
          </mxGeometry>
        </mxCell>
        <mxCell id="pdgIalMvOr3BezIeaZ6w-25" value="" style="shape=tableRow;horizontal=0;startSize=0;swimlaneHead=0;swimlaneBody=0;strokeColor=inherit;top=0;left=0;bottom=0;right=0;collapsible=0;dropTarget=0;fillColor=none;points=[[0,0.5],[1,0.5]];portConstraint=eastwest;fontSize=12;rounded=1;labelBackgroundColor=none;hachureGap=4;fontFamily=Architects Daughter;fontSource=https%3A%2F%2Ffonts.googleapis.com%2Fcss%3Ffamily%3DArchitects%2BDaughter;fontColor=#ffffff;html=1;snapToPoint=0;" parent="pdgIalMvOr3BezIeaZ6w-16" vertex="1">
          <mxGeometry y="150" width="180" height="30" as="geometry" />
        </mxCell>
        <mxCell id="pdgIalMvOr3BezIeaZ6w-26" value="External Software System" style="shape=partialRectangle;html=1;whiteSpace=wrap;connectable=0;strokeColor=inherit;overflow=hidden;fillColor=#8C8496;top=0;left=0;bottom=0;right=0;pointerEvents=1;fontSize=12;align=left;fontColor=#FFFFFF;gradientColor=none;spacingLeft=10;spacingRight=4;rounded=1;labelBackgroundColor=none;hachureGap=4;fontFamily=Architects Daughter;fontSource=https%3A%2F%2Ffonts.googleapis.com%2Fcss%3Ffamily%3DArchitects%2BDaughter;snapToPoint=0;" parent="pdgIalMvOr3BezIeaZ6w-25" vertex="1">
          <mxGeometry width="180" height="30" as="geometry">
            <mxRectangle width="180" height="30" as="alternateBounds" />
          </mxGeometry>
        </mxCell>
        <object placeholders="1" c4Name="Log System" c4Type="Container: Browser" c4Description="Provide rules and field definitions for log reporting." label="&lt;font style=&quot;font-size: 16px&quot;&gt;&lt;b&gt;%c4Name%&lt;/b&gt;&lt;/font&gt;&lt;div&gt;[%c4Type%]&lt;/div&gt;&lt;br&gt;&lt;div&gt;&lt;font style=&quot;font-size: 11px&quot;&gt;&lt;font color=&quot;#cccccc&quot;&gt;%c4Description%&lt;/font&gt;&lt;/div&gt;" id="pdgIalMvOr3BezIeaZ6w-27">
          <mxCell style="rounded=1;whiteSpace=wrap;html=1;labelBackgroundColor=none;fillColor=#8C8496;fontColor=#333333;align=center;arcSize=10;strokeColor=#736782;metaEdit=1;resizable=0;points=[[0.25,0,0],[0.5,0,0],[0.75,0,0],[1,0.25,0],[1,0.5,0],[1,0.75,0],[0.75,1,0],[0.5,1,0],[0.25,1,0],[0,0.75,0],[0,0.5,0],[0,0.25,0]];snapToPoint=0;" parent="1" vertex="1">
            <mxGeometry x="-800" y="-665" width="240" height="120" as="geometry" />
          </mxCell>
        </object>
        <mxCell id="pdgIalMvOr3BezIeaZ6w-29" style="edgeStyle=none;rounded=0;orthogonalLoop=1;jettySize=auto;html=1;exitX=0;exitY=0.75;exitDx=0;exitDy=0;exitPerimeter=0;entryX=0.5;entryY=0;entryDx=0;entryDy=0;entryPerimeter=0;dashed=1;snapToPoint=0;" parent="1" source="pdgIalMvOr3BezIeaZ6w-9" target="pdgIalMvOr3BezIeaZ6w-14" edge="1">
          <mxGeometry relative="1" as="geometry">
            <mxPoint x="-250" y="-706" as="sourcePoint" />
            <mxPoint x="-250" y="-590" as="targetPoint" />
          </mxGeometry>
        </mxCell>
        <mxCell id="pdgIalMvOr3BezIeaZ6w-30" value="Download Static Files" style="edgeLabel;html=1;align=center;verticalAlign=middle;resizable=0;points=[];snapToPoint=0;" parent="pdgIalMvOr3BezIeaZ6w-29" vertex="1" connectable="0">
          <mxGeometry x="-0.3461" y="-1" relative="1" as="geometry">
            <mxPoint x="13" y="23" as="offset" />
          </mxGeometry>
        </mxCell>
        <object placeholders="1" c4Name="JHK Cloud" c4Type="Server System" c4Description="Save media asset information, watch history, and advertising content." label="&lt;font style=&quot;font-size: 16px&quot;&gt;&lt;b&gt;%c4Name%&lt;/b&gt;&lt;/font&gt;&lt;div&gt;[%c4Type%]&lt;/div&gt;&lt;br&gt;&lt;div&gt;&lt;font style=&quot;font-size: 11px&quot;&gt;&lt;font color=&quot;#cccccc&quot;&gt;%c4Description%&lt;/font&gt;&lt;/div&gt;" id="nmBPD__0skHi1cCF54S6-1">
          <mxCell style="rounded=1;whiteSpace=wrap;html=1;labelBackgroundColor=none;fillColor=#8C8496;align=center;arcSize=10;strokeColor=#736782;metaEdit=1;resizable=0;points=[[0.25,0,0],[0.5,0,0],[0.75,0,0],[1,0.25,0],[1,0.5,0],[1,0.75,0],[0.75,1,0],[0.5,1,0],[0.25,1,0],[0,0.75,0],[0,0.5,0],[0,0.25,0]];fontColor=#333333;snapToPoint=0;" parent="1" vertex="1">
            <mxGeometry y="-665" width="240" height="120" as="geometry" />
          </mxCell>
        </object>
        <object placeholders="1" c4Name="HiPlayer" c4Type="Media Player" c4Description="Play streaming media of HLS, DASH protocol." label="&lt;font style=&quot;font-size: 16px&quot;&gt;&lt;b&gt;%c4Name%&lt;/b&gt;&lt;/font&gt;&lt;div&gt;[%c4Type%]&lt;/div&gt;&lt;br&gt;&lt;div&gt;&lt;font style=&quot;font-size: 11px&quot;&gt;&lt;font color=&quot;#cccccc&quot;&gt;%c4Description%&lt;/font&gt;&lt;/div&gt;" id="nmBPD__0skHi1cCF54S6-2">
          <mxCell style="rounded=1;whiteSpace=wrap;html=1;labelBackgroundColor=none;fillColor=#8C8496;align=center;arcSize=10;strokeColor=#736782;metaEdit=1;resizable=0;points=[[0.25,0,0],[0.5,0,0],[0.75,0,0],[1,0.25,0],[1,0.5,0],[1,0.75,0],[0.75,1,0],[0.5,1,0],[0.25,1,0],[0,0.75,0],[0,0.5,0],[0,0.25,0]];fontColor=#333333;snapToPoint=0;" parent="1" vertex="1">
            <mxGeometry x="-560" y="-480" width="240" height="120" as="geometry" />
          </mxCell>
        </object>
        <object placeholders="1" c4Name="3rd Application" c4Type="Others App" c4Description="Any other relevant applications." label="&lt;font style=&quot;font-size: 16px&quot;&gt;&lt;b&gt;%c4Name%&lt;/b&gt;&lt;/font&gt;&lt;div&gt;[%c4Type%]&lt;/div&gt;&lt;br&gt;&lt;div&gt;&lt;font style=&quot;font-size: 11px&quot;&gt;&lt;font color=&quot;#cccccc&quot;&gt;%c4Description%&lt;/font&gt;&lt;/div&gt;" id="xk5aK14Ckp2BJAwcKS8e-2">
          <mxCell style="rounded=1;whiteSpace=wrap;html=1;labelBackgroundColor=none;fillColor=#8C8496;align=center;arcSize=10;strokeColor=#736782;metaEdit=1;resizable=0;points=[[0.25,0,0],[0.5,0,0],[0.75,0,0],[1,0.25,0],[1,0.5,0],[1,0.75,0],[0.75,1,0],[0.5,1,0],[0.25,1,0],[0,0.75,0],[0,0.5,0],[0,0.25,0]];fontColor=#333333;snapToPoint=0;" parent="1" vertex="1">
            <mxGeometry x="-200" y="-480" width="240" height="120" as="geometry" />
          </mxCell>
        </object>
        <mxCell id="xk5aK14Ckp2BJAwcKS8e-3" style="edgeStyle=none;rounded=0;orthogonalLoop=1;jettySize=auto;html=1;exitX=1;exitY=0.5;exitDx=0;exitDy=0;exitPerimeter=0;entryX=0;entryY=0.5;entryDx=0;entryDy=0;entryPerimeter=0;dashed=1;snapToPoint=0;" parent="1" source="pdgIalMvOr3BezIeaZ6w-14" target="nmBPD__0skHi1cCF54S6-1" edge="1">
          <mxGeometry relative="1" as="geometry">
            <mxPoint x="-140" y="-691" as="sourcePoint" />
            <mxPoint y="-695" as="targetPoint" />
          </mxGeometry>
        </mxCell>
        <mxCell id="xk5aK14Ckp2BJAwcKS8e-4" value="Request Cloud Interface" style="edgeLabel;html=1;align=center;verticalAlign=middle;resizable=0;points=[];snapToPoint=0;" parent="xk5aK14Ckp2BJAwcKS8e-3" vertex="1" connectable="0">
          <mxGeometry x="0.3382" y="-2" relative="1" as="geometry">
            <mxPoint x="-28" y="-11" as="offset" />
          </mxGeometry>
        </mxCell>
        <mxCell id="xk5aK14Ckp2BJAwcKS8e-5" style="edgeStyle=none;rounded=0;orthogonalLoop=1;jettySize=auto;html=1;entryX=0.5;entryY=0;entryDx=0;entryDy=0;entryPerimeter=0;dashed=1;snapToPoint=0;exitX=0.25;exitY=1;exitDx=0;exitDy=0;exitPerimeter=0;" parent="1" source="pdgIalMvOr3BezIeaZ6w-14" target="nmBPD__0skHi1cCF54S6-2" edge="1">
          <mxGeometry relative="1" as="geometry">
            <mxPoint x="-580" y="-744" as="sourcePoint" />
            <mxPoint x="-440" y="-744" as="targetPoint" />
          </mxGeometry>
        </mxCell>
        <mxCell id="xk5aK14Ckp2BJAwcKS8e-6" value="Playback Media" style="edgeLabel;html=1;align=center;verticalAlign=middle;resizable=0;points=[];snapToPoint=0;" parent="xk5aK14Ckp2BJAwcKS8e-5" vertex="1" connectable="0">
          <mxGeometry x="0.3382" y="-2" relative="1" as="geometry">
            <mxPoint x="-32" y="-11" as="offset" />
          </mxGeometry>
        </mxCell>
        <mxCell id="xk5aK14Ckp2BJAwcKS8e-7" style="edgeStyle=none;rounded=0;orthogonalLoop=1;jettySize=auto;html=1;exitX=0.75;exitY=1;exitDx=0;exitDy=0;exitPerimeter=0;entryX=0.5;entryY=0;entryDx=0;entryDy=0;entryPerimeter=0;dashed=1;snapToPoint=0;" parent="1" source="pdgIalMvOr3BezIeaZ6w-14" target="xk5aK14Ckp2BJAwcKS8e-2" edge="1">
          <mxGeometry relative="1" as="geometry">
            <mxPoint x="-570" y="-734" as="sourcePoint" />
            <mxPoint x="-430" y="-734" as="targetPoint" />
          </mxGeometry>
        </mxCell>
        <mxCell id="xk5aK14Ckp2BJAwcKS8e-8" value="Install or Open Application" style="edgeLabel;html=1;align=center;verticalAlign=middle;resizable=0;points=[];snapToPoint=0;" parent="xk5aK14Ckp2BJAwcKS8e-7" vertex="1" connectable="0">
          <mxGeometry x="0.3382" y="-2" relative="1" as="geometry">
            <mxPoint x="47" y="-17" as="offset" />
          </mxGeometry>
        </mxCell>
        <mxCell id="xk5aK14Ckp2BJAwcKS8e-9" style="edgeStyle=none;rounded=0;orthogonalLoop=1;jettySize=auto;html=1;exitX=0;exitY=0.5;exitDx=0;exitDy=0;exitPerimeter=0;entryX=1;entryY=0.5;entryDx=0;entryDy=0;entryPerimeter=0;dashed=1;snapToPoint=0;" parent="1" source="pdgIalMvOr3BezIeaZ6w-14" target="pdgIalMvOr3BezIeaZ6w-27" edge="1">
          <mxGeometry relative="1" as="geometry">
            <mxPoint x="-560" y="-724" as="sourcePoint" />
            <mxPoint x="-420" y="-724" as="targetPoint" />
          </mxGeometry>
        </mxCell>
        <mxCell id="xk5aK14Ckp2BJAwcKS8e-10" value="Log Report" style="edgeLabel;html=1;align=center;verticalAlign=middle;resizable=0;points=[];snapToPoint=0;" parent="xk5aK14Ckp2BJAwcKS8e-9" vertex="1" connectable="0">
          <mxGeometry x="0.3382" y="-2" relative="1" as="geometry">
            <mxPoint x="27" y="-9" as="offset" />
          </mxGeometry>
        </mxCell>
        <mxCell id="0P4IZgNa1dxWdm-Mjlru-4" style="edgeStyle=none;rounded=0;orthogonalLoop=1;jettySize=auto;html=1;exitX=0;exitY=0.75;exitDx=0;exitDy=0;exitPerimeter=0;entryX=1;entryY=0.75;entryDx=0;entryDy=0;entryPerimeter=0;dashed=1;snapToPoint=0;" parent="1" source="nmBPD__0skHi1cCF54S6-1" target="pdgIalMvOr3BezIeaZ6w-14" edge="1">
          <mxGeometry relative="1" as="geometry">
            <mxPoint x="-150" y="-595" as="sourcePoint" />
            <mxPoint x="10" y="-595" as="targetPoint" />
          </mxGeometry>
        </mxCell>
        <mxCell id="0P4IZgNa1dxWdm-Mjlru-5" value="Return to Cloud Data" style="edgeLabel;html=1;align=center;verticalAlign=middle;resizable=0;points=[];snapToPoint=0;" parent="0P4IZgNa1dxWdm-Mjlru-4" vertex="1" connectable="0">
          <mxGeometry x="0.3382" y="-2" relative="1" as="geometry">
            <mxPoint x="27" y="-7" as="offset" />
          </mxGeometry>
        </mxCell>
        <mxCell id="0P4IZgNa1dxWdm-Mjlru-7" style="edgeStyle=none;rounded=0;orthogonalLoop=1;jettySize=auto;html=1;entryX=0.25;entryY=1;entryDx=0;entryDy=0;entryPerimeter=0;dashed=1;snapToPoint=0;exitX=0.75;exitY=0;exitDx=0;exitDy=0;exitPerimeter=0;" parent="1" source="nmBPD__0skHi1cCF54S6-2" target="pdgIalMvOr3BezIeaZ6w-14" edge="1">
          <mxGeometry relative="1" as="geometry">
            <mxPoint x="-210" y="-535" as="sourcePoint" />
            <mxPoint x="-70" y="-464" as="targetPoint" />
          </mxGeometry>
        </mxCell>
        <mxCell id="0P4IZgNa1dxWdm-Mjlru-8" value="Storing Watch&amp;nbsp;History" style="edgeLabel;html=1;align=center;verticalAlign=middle;resizable=0;points=[];snapToPoint=0;" parent="0P4IZgNa1dxWdm-Mjlru-7" vertex="1" connectable="0">
          <mxGeometry x="0.3382" y="-2" relative="1" as="geometry">
            <mxPoint x="43" y="23" as="offset" />
          </mxGeometry>
        </mxCell>
      </root>
    </mxGraphModel>
  </diagram>
  <diagram name="Container Diagram 容器图" id="nF2xmBGoeFdscsgZ4Gni">
    <mxGraphModel dx="3217" dy="2429" grid="1" gridSize="10" guides="1" tooltips="1" connect="1" arrows="1" fold="1" page="1" pageScale="1" pageWidth="827" pageHeight="1169" math="0" shadow="0">
      <root>
        <mxCell id="rLxDIQMhWm0sZyYMqCqf-0" />
        <mxCell id="rLxDIQMhWm0sZyYMqCqf-1" parent="rLxDIQMhWm0sZyYMqCqf-0" />
        <mxCell id="iYv2oY-Y4PPAG32dtUve-1" value="" style="edgeStyle=orthogonalEdgeStyle;shape=flexArrow;rounded=0;orthogonalLoop=1;jettySize=auto;html=1;" parent="rLxDIQMhWm0sZyYMqCqf-1" source="H-jDLda4eDzwqLoRHFvr-1" target="GMoAoEM3DJjVIgcV-lRU-2" edge="1">
          <mxGeometry relative="1" as="geometry" />
        </mxCell>
        <object placeholders="1" c4Name="终端用户" c4Type="Person" c4Description="每一个使用电视打开free的用户" label="&lt;font style=&quot;font-size: 16px&quot;&gt;&lt;b&gt;%c4Name%&lt;/b&gt;&lt;/font&gt;&lt;div&gt;[%c4Type%]&lt;/div&gt;&lt;br&gt;&lt;div&gt;&lt;font style=&quot;font-size: 11px&quot;&gt;&lt;font color=&quot;#cccccc&quot;&gt;%c4Description%&lt;/font&gt;&lt;/div&gt;" id="H-jDLda4eDzwqLoRHFvr-1">
          <mxCell style="html=1;fontSize=11;dashed=0;whiteSpace=wrap;fillColor=#083F75;strokeColor=#06315C;fontColor=#ffffff;shape=mxgraph.c4.person2;align=center;metaEdit=1;points=[[0.5,0,0],[1,0.5,0],[1,0.75,0],[0.75,1,0],[0.5,1,0],[0.25,1,0],[0,0.75,0],[0,0.5,0]];resizable=0;" parent="rLxDIQMhWm0sZyYMqCqf-1" vertex="1">
            <mxGeometry x="-6" y="560" width="200" height="180" as="geometry" />
          </mxCell>
        </object>
        <object placeholders="1" c4Name="VIDAA Free" c4Type="SystemScopeBoundary" c4Application="Software System" label="&lt;font style=&quot;font-size: 16px&quot;&gt;&lt;b&gt;&lt;div style=&quot;text-align: left&quot;&gt;%c4Name%&lt;/div&gt;&lt;/b&gt;&lt;/font&gt;&lt;div style=&quot;text-align: left&quot;&gt;[%c4Application%]&lt;/div&gt;" id="H-jDLda4eDzwqLoRHFvr-2">
          <mxCell style="rounded=1;fontSize=11;whiteSpace=wrap;html=1;dashed=1;arcSize=20;fillColor=none;strokeColor=#666666;fontColor=#333333;labelBackgroundColor=none;align=left;verticalAlign=bottom;labelBorderColor=none;spacingTop=0;spacing=10;dashPattern=8 4;metaEdit=1;rotatable=0;perimeter=rectanglePerimeter;noLabel=0;labelPadding=0;allowArrows=0;connectable=0;expand=0;recursiveResize=0;editable=1;pointerEvents=0;absoluteArcSize=1;points=[[0.25,0,0],[0.5,0,0],[0.75,0,0],[1,0.25,0],[1,0.5,0],[1,0.75,0],[0.75,1,0],[0.5,1,0],[0.25,1,0],[0,0.75,0],[0,0.5,0],[0,0.25,0]];" parent="rLxDIQMhWm0sZyYMqCqf-1" vertex="1">
            <mxGeometry x="-290" y="941" width="1210" height="566" as="geometry" />
          </mxCell>
        </object>
        <object placeholders="1" c4Name="pub" c4Type="Container" c4Technology="function module" c4Description="业务相关功能实现：公共方法、页面封装组件、云端接口方法封装等" label="&lt;font style=&quot;font-size: 16px&quot;&gt;&lt;b&gt;%c4Name%&lt;/b&gt;&lt;/font&gt;&lt;div&gt;[%c4Type%: %c4Technology%]&lt;/div&gt;&lt;br&gt;&lt;div&gt;&lt;font style=&quot;font-size: 11px&quot;&gt;&lt;font color=&quot;#E6E6E6&quot;&gt;%c4Description%&lt;/font&gt;&lt;/div&gt;" id="H-jDLda4eDzwqLoRHFvr-3">
          <mxCell style="rounded=1;whiteSpace=wrap;html=1;fontSize=11;labelBackgroundColor=none;fillColor=#23A2D9;fontColor=#ffffff;align=center;arcSize=10;strokeColor=#0E7DAD;metaEdit=1;resizable=0;points=[[0.25,0,0],[0.5,0,0],[0.75,0,0],[1,0.25,0],[1,0.5,0],[1,0.75,0],[0.75,1,0],[0.5,1,0],[0.25,1,0],[0,0.75,0],[0,0.5,0],[0,0.25,0]];" parent="rLxDIQMhWm0sZyYMqCqf-1" vertex="1">
            <mxGeometry x="-278" y="971" width="240" height="120" as="geometry" />
          </mxCell>
        </object>
        <object placeholders="1" c4Name="core" c4Type="Container" c4Technology="function module" c4Description="框架功能实现：焦点、按键、路由、store、message等" label="&lt;font style=&quot;font-size: 16px&quot;&gt;&lt;b&gt;%c4Name%&lt;/b&gt;&lt;/font&gt;&lt;div&gt;[%c4Type%: %c4Technology%]&lt;/div&gt;&lt;br&gt;&lt;div&gt;&lt;font style=&quot;font-size: 11px&quot;&gt;&lt;font color=&quot;#E6E6E6&quot;&gt;%c4Description%&lt;/font&gt;&lt;/div&gt;" id="H-jDLda4eDzwqLoRHFvr-4">
          <mxCell style="rounded=1;whiteSpace=wrap;html=1;fontSize=11;labelBackgroundColor=none;fillColor=#23A2D9;fontColor=#ffffff;align=center;arcSize=10;strokeColor=#0E7DAD;metaEdit=1;resizable=0;points=[[0.25,0,0],[0.5,0,0],[0.75,0,0],[1,0.25,0],[1,0.5,0],[1,0.75,0],[0.75,1,0],[0.5,1,0],[0.25,1,0],[0,0.75,0],[0,0.5,0],[0,0.25,0]];" parent="rLxDIQMhWm0sZyYMqCqf-1" vertex="1">
            <mxGeometry x="-280" y="1301" width="240" height="120" as="geometry" />
          </mxCell>
        </object>
        <object placeholders="1" c4Name="SDK" c4Type="Container" c4Technology="function module" c4Description="提供公共组件、主题包等" label="&lt;font style=&quot;font-size: 16px&quot;&gt;&lt;b&gt;%c4Name%&lt;/b&gt;&lt;/font&gt;&lt;div&gt;[%c4Type%: %c4Technology%]&lt;/div&gt;&lt;br&gt;&lt;div&gt;&lt;font style=&quot;font-size: 11px&quot;&gt;&lt;font color=&quot;#E6E6E6&quot;&gt;%c4Description%&lt;/font&gt;&lt;/div&gt;" id="H-jDLda4eDzwqLoRHFvr-5">
          <mxCell style="rounded=1;whiteSpace=wrap;html=1;fontSize=11;labelBackgroundColor=none;fillColor=#23A2D9;fontColor=#ffffff;align=center;arcSize=10;strokeColor=#0E7DAD;metaEdit=1;resizable=0;points=[[0.25,0,0],[0.5,0,0],[0.75,0,0],[1,0.25,0],[1,0.5,0],[1,0.75,0],[0.75,1,0],[0.5,1,0],[0.25,1,0],[0,0.75,0],[0,0.5,0],[0,0.25,0]];" parent="rLxDIQMhWm0sZyYMqCqf-1" vertex="1">
            <mxGeometry x="265" y="971" width="240" height="120" as="geometry" />
          </mxCell>
        </object>
        <object placeholders="1" c4Name="init" c4Type="Container" c4Technology="function module" c4Description="运行时初始化相关" label="&lt;font style=&quot;font-size: 16px&quot;&gt;&lt;b&gt;%c4Name%&lt;/b&gt;&lt;/font&gt;&lt;div&gt;[%c4Type%: %c4Technology%]&lt;/div&gt;&lt;br&gt;&lt;div&gt;&lt;font style=&quot;font-size: 11px&quot;&gt;&lt;font color=&quot;#E6E6E6&quot;&gt;%c4Description%&lt;/font&gt;&lt;/div&gt;" id="H-jDLda4eDzwqLoRHFvr-6">
          <mxCell style="rounded=1;whiteSpace=wrap;html=1;fontSize=11;labelBackgroundColor=none;fillColor=#23A2D9;fontColor=#ffffff;align=center;arcSize=10;strokeColor=#0E7DAD;metaEdit=1;resizable=0;points=[[0.25,0,0],[0.5,0,0],[0.75,0,0],[1,0.25,0],[1,0.5,0],[1,0.75,0],[0.75,1,0],[0.5,1,0],[0.25,1,0],[0,0.75,0],[0,0.5,0],[0,0.25,0]];" parent="rLxDIQMhWm0sZyYMqCqf-1" vertex="1">
            <mxGeometry x="262" y="1301" width="240" height="120" as="geometry" />
          </mxCell>
        </object>
        <mxCell id="H-jDLda4eDzwqLoRHFvr-7" value="功能调用" style="edgeStyle=orthogonalEdgeStyle;rounded=0;orthogonalLoop=1;jettySize=auto;html=1;entryX=0.5;entryY=1;entryDx=0;entryDy=0;entryPerimeter=0;shape=flexArrow;" parent="rLxDIQMhWm0sZyYMqCqf-1" source="H-jDLda4eDzwqLoRHFvr-11" target="H-jDLda4eDzwqLoRHFvr-3" edge="1">
          <mxGeometry x="-0.6036" relative="1" as="geometry">
            <Array as="points">
              <mxPoint x="-158" y="1177" />
            </Array>
            <mxPoint as="offset" />
          </mxGeometry>
        </mxCell>
        <mxCell id="H-jDLda4eDzwqLoRHFvr-8" value="方法调用" style="edgeStyle=orthogonalEdgeStyle;rounded=0;orthogonalLoop=1;jettySize=auto;html=1;exitX=0;exitY=0.5;exitDx=0;exitDy=0;exitPerimeter=0;entryX=0.5;entryY=0;entryDx=0;entryDy=0;entryPerimeter=0;shape=flexArrow;" parent="rLxDIQMhWm0sZyYMqCqf-1" target="H-jDLda4eDzwqLoRHFvr-4" edge="1">
          <mxGeometry x="-0.5663" relative="1" as="geometry">
            <mxPoint x="-160" y="1281" as="targetPoint" />
            <mxPoint x="-16" y="1196" as="sourcePoint" />
            <mxPoint as="offset" />
            <Array as="points">
              <mxPoint x="-16" y="1207" />
              <mxPoint x="-160" y="1207" />
            </Array>
          </mxGeometry>
        </mxCell>
        <mxCell id="H-jDLda4eDzwqLoRHFvr-9" value="方法调用" style="edgeStyle=orthogonalEdgeStyle;rounded=0;orthogonalLoop=1;jettySize=auto;html=1;shape=flexArrow;" parent="rLxDIQMhWm0sZyYMqCqf-1" edge="1">
          <mxGeometry x="-0.6151" relative="1" as="geometry">
            <mxPoint x="393" y="1301" as="targetPoint" />
            <mxPoint as="offset" />
            <mxPoint x="207" y="1209" as="sourcePoint" />
          </mxGeometry>
        </mxCell>
        <mxCell id="H-jDLda4eDzwqLoRHFvr-10" value="组件调用" style="edgeStyle=orthogonalEdgeStyle;rounded=0;orthogonalLoop=1;jettySize=auto;html=1;exitX=0.5;exitY=0;exitDx=0;exitDy=0;exitPerimeter=0;shape=flexArrow;" parent="rLxDIQMhWm0sZyYMqCqf-1" edge="1">
          <mxGeometry relative="1" as="geometry">
            <mxPoint x="392.9411764705883" y="1091" as="targetPoint" />
            <Array as="points">
              <mxPoint x="87" y="1177" />
              <mxPoint x="393" y="1177" />
            </Array>
            <mxPoint x="87" y="1156" as="sourcePoint" />
          </mxGeometry>
        </mxCell>
        <mxCell id="iYv2oY-Y4PPAG32dtUve-13" value="" style="edgeStyle=orthogonalEdgeStyle;shape=flexArrow;rounded=0;orthogonalLoop=1;jettySize=auto;html=1;" parent="rLxDIQMhWm0sZyYMqCqf-1" source="H-jDLda4eDzwqLoRHFvr-11" target="iYv2oY-Y4PPAG32dtUve-7" edge="1">
          <mxGeometry relative="1" as="geometry" />
        </mxCell>
        <object placeholders="1" c4Name="Free view" c4Type="Component" c4Technology="e.g. Spring Service" c4Description="free 页面入口及特有功能实现" label="&lt;font style=&quot;font-size: 16px&quot;&gt;&lt;b&gt;%c4Name%&lt;/b&gt;&lt;/font&gt;&lt;div&gt;[%c4Type%: %c4Technology%]&lt;/div&gt;&lt;br&gt;&lt;div&gt;&lt;font style=&quot;font-size: 11px&quot;&gt;%c4Description%&lt;/font&gt;&lt;/div&gt;" id="H-jDLda4eDzwqLoRHFvr-11">
          <mxCell style="rounded=1;whiteSpace=wrap;html=1;labelBackgroundColor=none;fillColor=#63BEF2;fontColor=#ffffff;align=center;arcSize=6;strokeColor=#2086C9;metaEdit=1;resizable=0;points=[[0.25,0,0],[0.5,0,0],[0.75,0,0],[1,0.25,0],[1,0.5,0],[1,0.75,0],[0.75,1,0],[0.5,1,0],[0.25,1,0],[0,0.75,0],[0,0.5,0],[0,0.25,0]];" parent="rLxDIQMhWm0sZyYMqCqf-1" vertex="1">
            <mxGeometry x="-26" y="1137" width="240" height="120" as="geometry" />
          </mxCell>
        </object>
        <mxCell id="iYv2oY-Y4PPAG32dtUve-2" value="" style="edgeStyle=orthogonalEdgeStyle;shape=flexArrow;rounded=0;orthogonalLoop=1;jettySize=auto;html=1;" parent="rLxDIQMhWm0sZyYMqCqf-1" source="GMoAoEM3DJjVIgcV-lRU-2" edge="1">
          <mxGeometry relative="1" as="geometry">
            <mxPoint x="94" y="942" as="targetPoint" />
          </mxGeometry>
        </mxCell>
        <object placeholders="1" c4Name="其他模块" c4Type="Software System" c4Description="在UI中点击free图标启动后调起浏览器启动应用" label="&lt;font style=&quot;font-size: 16px&quot;&gt;&lt;b&gt;%c4Name%&lt;/b&gt;&lt;/font&gt;&lt;div&gt;[%c4Type%]&lt;/div&gt;&lt;br&gt;&lt;div&gt;&lt;font style=&quot;font-size: 11px&quot;&gt;&lt;font color=&quot;#cccccc&quot;&gt;%c4Description%&lt;/font&gt;&lt;/div&gt;" id="GMoAoEM3DJjVIgcV-lRU-2">
          <mxCell style="rounded=1;whiteSpace=wrap;html=1;labelBackgroundColor=none;fillColor=#1061B0;fontColor=#ffffff;align=center;arcSize=10;strokeColor=#0D5091;metaEdit=1;resizable=0;points=[[0.25,0,0],[0.5,0,0],[0.75,0,0],[1,0.25,0],[1,0.5,0],[1,0.75,0],[0.75,1,0],[0.5,1,0],[0.25,1,0],[0,0.75,0],[0,0.5,0],[0,0.25,0]];" parent="rLxDIQMhWm0sZyYMqCqf-1" vertex="1">
            <mxGeometry x="-26" y="782" width="240" height="120" as="geometry" />
          </mxCell>
        </object>
        <mxCell id="NH0xK3e2ZodVtf5XpH9A-1" value="启动应用视频观看" style="edgeStyle=orthogonalEdgeStyle;rounded=0;orthogonalLoop=1;jettySize=auto;html=1;shape=flexArrow;" parent="rLxDIQMhWm0sZyYMqCqf-1" target="NH0xK3e2ZodVtf5XpH9A-0" edge="1">
          <mxGeometry relative="1" as="geometry">
            <mxPoint x="-290" y="1187" as="sourcePoint" />
          </mxGeometry>
        </mxCell>
        <object placeholders="1" c4Name="其他系统" c4Type="Software System" c4Description="如JHK媒资系统、日志系统、hiPlayer " label="&lt;font style=&quot;font-size: 16px&quot;&gt;&lt;b&gt;%c4Name%&lt;/b&gt;&lt;/font&gt;&lt;div&gt;[%c4Type%]&lt;/div&gt;&lt;br&gt;&lt;div&gt;&lt;font style=&quot;font-size: 11px&quot;&gt;&lt;font color=&quot;#cccccc&quot;&gt;%c4Description%&lt;/font&gt;&lt;/div&gt;" id="NH0xK3e2ZodVtf5XpH9A-0">
          <mxCell style="rounded=1;whiteSpace=wrap;html=1;labelBackgroundColor=none;fillColor=#1061B0;fontColor=#ffffff;align=center;arcSize=10;strokeColor=#0D5091;metaEdit=1;resizable=0;points=[[0.25,0,0],[0.5,0,0],[0.75,0,0],[1,0.25,0],[1,0.5,0],[1,0.75,0],[0.75,1,0],[0.5,1,0],[0.25,1,0],[0,0.75,0],[0,0.5,0],[0,0.25,0]];" parent="rLxDIQMhWm0sZyYMqCqf-1" vertex="1">
            <mxGeometry x="-672" y="1127" width="240" height="120" as="geometry" />
          </mxCell>
        </object>
        <object placeholders="1" c4Name="vod" c4Type="Container" c4Technology="function module" c4Description="与运营类应用相关公共逻辑" label="&lt;font style=&quot;font-size: 16px&quot;&gt;&lt;b&gt;%c4Name%&lt;/b&gt;&lt;/font&gt;&lt;div&gt;[%c4Type%: %c4Technology%]&lt;/div&gt;&lt;br&gt;&lt;div&gt;&lt;font style=&quot;font-size: 11px&quot;&gt;&lt;font color=&quot;#E6E6E6&quot;&gt;%c4Description%&lt;/font&gt;&lt;/div&gt;" id="iYv2oY-Y4PPAG32dtUve-7">
          <mxCell style="rounded=1;whiteSpace=wrap;html=1;fontSize=11;labelBackgroundColor=none;fillColor=#23A2D9;fontColor=#ffffff;align=center;arcSize=10;strokeColor=#0E7DAD;metaEdit=1;resizable=0;points=[[0.25,0,0],[0.5,0,0],[0.75,0,0],[1,0.25,0],[1,0.5,0],[1,0.75,0],[0.75,1,0],[0.5,1,0],[0.25,1,0],[0,0.75,0],[0,0.5,0],[0,0.25,0]];" parent="rLxDIQMhWm0sZyYMqCqf-1" vertex="1">
            <mxGeometry x="-25" y="1302" width="240" height="120" as="geometry" />
          </mxCell>
        </object>
        <object placeholders="1" c4Name="External system name" c4Type="Software System" c4Description="Description of external software system." label="&lt;font style=&quot;font-size: 16px&quot;&gt;&lt;b&gt;%c4Name%&lt;/b&gt;&lt;/font&gt;&lt;div&gt;[%c4Type%]&lt;/div&gt;&lt;br&gt;&lt;div&gt;&lt;font style=&quot;font-size: 11px&quot;&gt;&lt;font color=&quot;#cccccc&quot;&gt;%c4Description%&lt;/font&gt;&lt;/div&gt;" id="iYv2oY-Y4PPAG32dtUve-8">
          <mxCell style="rounded=1;whiteSpace=wrap;html=1;labelBackgroundColor=none;fillColor=#8C8496;fontColor=#ffffff;align=center;arcSize=10;strokeColor=#736782;metaEdit=1;resizable=0;points=[[0.25,0,0],[0.5,0,0],[0.75,0,0],[1,0.25,0],[1,0.5,0],[1,0.75,0],[0.75,1,0],[0.5,1,0],[0.25,1,0],[0,0.75,0],[0,0.5,0],[0,0.25,0]];shadow=0;" parent="rLxDIQMhWm0sZyYMqCqf-1" vertex="1">
            <mxGeometry x="-800" y="1497" width="240" height="120" as="geometry" />
          </mxCell>
        </object>
        <object placeholders="1" c4Name=" " c4Type=" " c4Application=" " label="&lt;font style=&quot;font-size: 16px&quot;&gt;&lt;b&gt;&lt;div style=&quot;text-align: left&quot;&gt;%c4Name%&lt;/div&gt;&lt;/b&gt;&lt;/font&gt;&lt;div style=&quot;text-align: left&quot;&gt;[%c4Application%]&lt;/div&gt;" id="iYv2oY-Y4PPAG32dtUve-9">
          <mxCell style="rounded=1;fontSize=11;whiteSpace=wrap;html=1;dashed=1;arcSize=20;fillColor=none;strokeColor=#666666;fontColor=#333333;labelBackgroundColor=none;align=left;verticalAlign=bottom;labelBorderColor=none;spacingTop=0;spacing=10;dashPattern=8 4;metaEdit=1;rotatable=0;perimeter=rectanglePerimeter;noLabel=0;labelPadding=0;allowArrows=0;connectable=0;expand=0;recursiveResize=0;editable=1;pointerEvents=0;absoluteArcSize=1;points=[[0.25,0,0],[0.5,0,0],[0.75,0,0],[1,0.25,0],[1,0.5,0],[1,0.75,0],[0.75,1,0],[0.5,1,0],[0.25,1,0],[0,0.75,0],[0,0.5,0],[0,0.25,0]];shadow=0;" parent="rLxDIQMhWm0sZyYMqCqf-1" vertex="1">
            <mxGeometry x="600" y="971" width="280" height="450" as="geometry" />
          </mxCell>
        </object>
        <object placeholders="1" c4Name="vidaatv.js" c4Type="Software System" c4Description="浏览器接口方法" label="&lt;font style=&quot;font-size: 16px&quot;&gt;&lt;b&gt;%c4Name%&lt;/b&gt;&lt;/font&gt;&lt;div&gt;[%c4Type%]&lt;/div&gt;&lt;br&gt;&lt;div&gt;&lt;font style=&quot;font-size: 11px&quot;&gt;&lt;font color=&quot;#cccccc&quot;&gt;%c4Description%&lt;/font&gt;&lt;/div&gt;" id="iYv2oY-Y4PPAG32dtUve-10">
          <mxCell style="rounded=1;whiteSpace=wrap;html=1;labelBackgroundColor=none;fillColor=#8C8496;fontColor=#ffffff;align=center;arcSize=10;strokeColor=#736782;metaEdit=1;resizable=0;points=[[0.25,0,0],[0.5,0,0],[0.75,0,0],[1,0.25,0],[1,0.5,0],[1,0.75,0],[0.75,1,0],[0.5,1,0],[0.25,1,0],[0,0.75,0],[0,0.5,0],[0,0.25,0]];shadow=0;" parent="rLxDIQMhWm0sZyYMqCqf-1" vertex="1">
            <mxGeometry x="620" y="991" width="240" height="120" as="geometry" />
          </mxCell>
        </object>
        <object placeholders="1" c4Name="apiService.js" c4Type="Software System" c4Description="提供API相关方法" label="&lt;font style=&quot;font-size: 16px&quot;&gt;&lt;b&gt;%c4Name%&lt;/b&gt;&lt;/font&gt;&lt;div&gt;[%c4Type%]&lt;/div&gt;&lt;br&gt;&lt;div&gt;&lt;font style=&quot;font-size: 11px&quot;&gt;&lt;font color=&quot;#cccccc&quot;&gt;%c4Description%&lt;/font&gt;&lt;/div&gt;" id="iYv2oY-Y4PPAG32dtUve-11">
          <mxCell style="rounded=1;whiteSpace=wrap;html=1;labelBackgroundColor=none;fillColor=#8C8496;fontColor=#ffffff;align=center;arcSize=10;strokeColor=#736782;metaEdit=1;resizable=0;points=[[0.25,0,0],[0.5,0,0],[0.75,0,0],[1,0.25,0],[1,0.5,0],[1,0.75,0],[0.75,1,0],[0.5,1,0],[0.25,1,0],[0,0.75,0],[0,0.5,0],[0,0.25,0]];shadow=0;" parent="rLxDIQMhWm0sZyYMqCqf-1" vertex="1">
            <mxGeometry x="620" y="1137" width="240" height="120" as="geometry" />
          </mxCell>
        </object>
        <object placeholders="1" c4Name="adService.js" c4Type="Software System" c4Description="提供广告相关方法" label="&lt;font style=&quot;font-size: 16px&quot;&gt;&lt;b&gt;%c4Name%&lt;/b&gt;&lt;/font&gt;&lt;div&gt;[%c4Type%]&lt;/div&gt;&lt;br&gt;&lt;div&gt;&lt;font style=&quot;font-size: 11px&quot;&gt;&lt;font color=&quot;#cccccc&quot;&gt;%c4Description%&lt;/font&gt;&lt;/div&gt;" id="iYv2oY-Y4PPAG32dtUve-12">
          <mxCell style="rounded=1;whiteSpace=wrap;html=1;labelBackgroundColor=none;fillColor=#8C8496;fontColor=#ffffff;align=center;arcSize=10;strokeColor=#736782;metaEdit=1;resizable=0;points=[[0.25,0,0],[0.5,0,0],[0.75,0,0],[1,0.25,0],[1,0.5,0],[1,0.75,0],[0.75,1,0],[0.5,1,0],[0.25,1,0],[0,0.75,0],[0,0.5,0],[0,0.25,0]];shadow=0;" parent="rLxDIQMhWm0sZyYMqCqf-1" vertex="1">
            <mxGeometry x="620" y="1287" width="240" height="120" as="geometry" />
          </mxCell>
        </object>
        <mxCell id="aScQEyIa5uzGYhcaweQR-0" style="rounded=0;orthogonalLoop=1;jettySize=auto;html=1;exitX=0.5;exitY=1;exitDx=0;exitDy=0;exitPerimeter=0;entryX=0.5;entryY=0;entryDx=0;entryDy=0;entryPerimeter=0;dashed=1;snapToPoint=0;" edge="1" parent="rLxDIQMhWm0sZyYMqCqf-1" source="aScQEyIa5uzGYhcaweQR-2" target="aScQEyIa5uzGYhcaweQR-5">
          <mxGeometry relative="1" as="geometry">
            <Array as="points" />
          </mxGeometry>
        </mxCell>
        <mxCell id="aScQEyIa5uzGYhcaweQR-1" value="Click App Icon" style="edgeLabel;html=1;align=center;verticalAlign=middle;resizable=0;points=[];snapToPoint=0;" vertex="1" connectable="0" parent="aScQEyIa5uzGYhcaweQR-0">
          <mxGeometry x="-0.2552" y="1" relative="1" as="geometry">
            <mxPoint x="-1" y="2" as="offset" />
          </mxGeometry>
        </mxCell>
        <object c4Name="User" c4Type="Person" c4Description="Users of TV." label="&lt;font style=&quot;font-size: 16px&quot;&gt;&lt;b&gt;%c4Name%&lt;/b&gt;&lt;/font&gt;&lt;div&gt;[%c4Type%]&lt;/div&gt;&lt;br&gt;&lt;div&gt;&lt;font style=&quot;font-size: 11px&quot;&gt;&lt;font color=&quot;#cccccc&quot;&gt;%c4Description%&lt;/font&gt;&lt;/div&gt;" placeholders="1" id="aScQEyIa5uzGYhcaweQR-2">
          <mxCell style="html=1;fontSize=11;dashed=0;whitespace=wrap;fillColor=#083F75;strokeColor=#06315C;fontColor=#ffffff;shape=mxgraph.c4.person2;align=center;metaEdit=1;points=[[0.5,0,0],[1,0.5,0],[1,0.75,0],[0.75,1,0],[0.5,1,0],[0.25,1,0],[0,0.75,0],[0,0.5,0]];resizable=0;snapToPoint=0;" vertex="1" parent="rLxDIQMhWm0sZyYMqCqf-1">
            <mxGeometry x="-580" y="-1120" width="200" height="180" as="geometry" />
          </mxCell>
        </object>
        <mxCell id="aScQEyIa5uzGYhcaweQR-3" style="edgeStyle=none;rounded=0;orthogonalLoop=1;jettySize=auto;html=1;exitX=1;exitY=0.5;exitDx=0;exitDy=0;exitPerimeter=0;entryX=0;entryY=0.5;entryDx=0;entryDy=0;entryPerimeter=0;dashed=1;snapToPoint=0;" edge="1" parent="rLxDIQMhWm0sZyYMqCqf-1" source="aScQEyIa5uzGYhcaweQR-5" target="aScQEyIa5uzGYhcaweQR-10">
          <mxGeometry relative="1" as="geometry" />
        </mxCell>
        <mxCell id="aScQEyIa5uzGYhcaweQR-4" value="Launch App" style="edgeLabel;html=1;align=center;verticalAlign=middle;resizable=0;points=[];snapToPoint=0;" vertex="1" connectable="0" parent="aScQEyIa5uzGYhcaweQR-3">
          <mxGeometry x="-0.3461" y="-1" relative="1" as="geometry">
            <mxPoint x="18" y="-1" as="offset" />
          </mxGeometry>
        </mxCell>
        <object placeholders="1" c4Name="UI Launcher" c4Type="Container: Vue" c4Description="Home page of the TV, showing the list of major apps and entrances." label="&lt;font style=&quot;font-size: 16px&quot;&gt;&lt;b&gt;%c4Name%&lt;/b&gt;&lt;/font&gt;&lt;div&gt;[%c4Type%]&lt;/div&gt;&lt;br&gt;&lt;div&gt;&lt;font style=&quot;font-size: 11px&quot;&gt;&lt;font color=&quot;#cccccc&quot;&gt;%c4Description%&lt;/font&gt;&lt;/div&gt;" id="aScQEyIa5uzGYhcaweQR-5">
          <mxCell style="rounded=1;whiteSpace=wrap;html=1;labelBackgroundColor=none;fillColor=#8C8496;fontColor=#333333;align=center;arcSize=10;strokeColor=#736782;metaEdit=1;resizable=0;points=[[0.25,0,0],[0.5,0,0],[0.75,0,0],[1,0.25,0],[1,0.5,0],[1,0.75,0],[0.75,1,0],[0.5,1,0],[0.25,1,0],[0,0.75,0],[0,0.5,0],[0,0.25,0]];snapToPoint=0;" vertex="1" parent="rLxDIQMhWm0sZyYMqCqf-1">
            <mxGeometry x="-800" y="-860" width="240" height="120" as="geometry" />
          </mxCell>
        </object>
        <object placeholders="1" c4Name="AWS" c4Type="Server System" c4Description="Methods related to storing application static files and gray scale deployment." label="&lt;font style=&quot;font-size: 16px&quot;&gt;&lt;b&gt;%c4Name%&lt;/b&gt;&lt;/font&gt;&lt;div&gt;[%c4Type%]&lt;/div&gt;&lt;br&gt;&lt;div&gt;&lt;font style=&quot;font-size: 11px&quot;&gt;&lt;font color=&quot;#cccccc&quot;&gt;%c4Description%&lt;/font&gt;&lt;/div&gt;" id="aScQEyIa5uzGYhcaweQR-6">
          <mxCell style="rounded=1;whiteSpace=wrap;html=1;labelBackgroundColor=none;fillColor=#8C8496;align=center;arcSize=10;strokeColor=#736782;metaEdit=1;resizable=0;points=[[0.25,0,0],[0.5,0,0],[0.75,0,0],[1,0.25,0],[1,0.5,0],[1,0.75,0],[0.75,1,0],[0.5,1,0],[0.25,1,0],[0,0.75,0],[0,0.5,0],[0,0.25,0]];fontColor=#333333;snapToPoint=0;" vertex="1" parent="rLxDIQMhWm0sZyYMqCqf-1">
            <mxGeometry x="587" y="-860" width="240" height="120" as="geometry" />
          </mxCell>
        </object>
        <mxCell id="aScQEyIa5uzGYhcaweQR-7" style="edgeStyle=none;rounded=0;orthogonalLoop=1;jettySize=auto;html=1;entryX=0;entryY=0.5;entryDx=0;entryDy=0;entryPerimeter=0;dashed=1;snapToPoint=0;exitX=1;exitY=0.5;exitDx=0;exitDy=0;exitPerimeter=0;" edge="1" parent="rLxDIQMhWm0sZyYMqCqf-1" source="aScQEyIa5uzGYhcaweQR-10" target="aScQEyIa5uzGYhcaweQR-6">
          <mxGeometry relative="1" as="geometry">
            <mxPoint x="240" y="-710" as="sourcePoint" />
          </mxGeometry>
        </mxCell>
        <mxCell id="aScQEyIa5uzGYhcaweQR-8" value="Download static files" style="edgeLabel;html=1;align=center;verticalAlign=middle;resizable=0;points=[];snapToPoint=0;" vertex="1" connectable="0" parent="aScQEyIa5uzGYhcaweQR-7">
          <mxGeometry x="0.3382" y="-2" relative="1" as="geometry">
            <mxPoint x="-24" y="-2" as="offset" />
          </mxGeometry>
        </mxCell>
        <object placeholders="1" c4Name="VIDAA Free &amp; VIDAA Store" c4Type="Container: Vue" c4Description="Showcase media and application in the form of HeroBanner and WaterFall." label="&lt;font style=&quot;font-size: 16px&quot;&gt;&lt;b&gt;%c4Name%&lt;/b&gt;&lt;/font&gt;&lt;div&gt;[%c4Type%]&lt;/div&gt;&lt;br&gt;&lt;div&gt;&lt;font style=&quot;font-size: 11px&quot;&gt;&lt;font color=&quot;#cccccc&quot;&gt;%c4Description%&lt;/font&gt;&lt;/div&gt;" id="aScQEyIa5uzGYhcaweQR-9">
          <mxCell style="rounded=1;whiteSpace=wrap;html=1;labelBackgroundColor=none;fillColor=#3162AF;fontColor=#ffffff;align=center;arcSize=10;strokeColor=#0D5091;metaEdit=1;resizable=0;points=[[0.25,0,0],[0.5,0,0],[0.75,0,0],[1,0.25,0],[1,0.5,0],[1,0.75,0],[0.75,1,0],[0.5,1,0],[0.25,1,0],[0,0.75,0],[0,0.5,0],[0,0.25,0]];snapToPoint=0;" vertex="1" parent="rLxDIQMhWm0sZyYMqCqf-1">
            <mxGeometry x="-80" y="-480" width="240" height="120" as="geometry" />
          </mxCell>
        </object>
        <object placeholders="1" c4Name="Odin/Vewd Broswer" c4Type="Browser in TV" c4Description="Provide streaming media parsing protocol stack." label="&lt;font style=&quot;font-size: 16px&quot;&gt;&lt;b&gt;%c4Name%&lt;/b&gt;&lt;/font&gt;&lt;div&gt;[%c4Type%]&lt;/div&gt;&lt;br&gt;&lt;div&gt;&lt;font style=&quot;font-size: 11px&quot;&gt;&lt;font color=&quot;#cccccc&quot;&gt;%c4Description%&lt;/font&gt;&lt;/div&gt;" id="aScQEyIa5uzGYhcaweQR-10">
          <mxCell style="rounded=1;whiteSpace=wrap;html=1;labelBackgroundColor=none;fillColor=#8C8496;fontColor=#333333;align=center;arcSize=10;strokeColor=#736782;metaEdit=1;resizable=0;points=[[0.25,0,0],[0.5,0,0],[0.75,0,0],[1,0.25,0],[1,0.5,0],[1,0.75,0],[0.75,1,0],[0.5,1,0],[0.25,1,0],[0,0.75,0],[0,0.5,0],[0,0.25,0]];snapToPoint=0;" vertex="1" parent="rLxDIQMhWm0sZyYMqCqf-1">
            <mxGeometry x="-400" y="-860" width="240" height="120" as="geometry" />
          </mxCell>
        </object>
        <mxCell id="aScQEyIa5uzGYhcaweQR-11" value="Legend" style="shape=table;startSize=30;container=1;collapsible=0;childLayout=tableLayout;fontSize=16;align=left;verticalAlign=top;fillColor=none;strokeColor=none;fontColor=#4D4D4D;fontStyle=1;spacingLeft=6;spacing=0;resizable=0;rounded=1;labelBackgroundColor=none;hachureGap=4;fontFamily=Architects Daughter;fontSource=https%3A%2F%2Ffonts.googleapis.com%2Fcss%3Ffamily%3DArchitects%2BDaughter;html=1;snapToPoint=0;" vertex="1" parent="rLxDIQMhWm0sZyYMqCqf-1">
          <mxGeometry x="-160" y="-1120" width="180" height="180" as="geometry" />
        </mxCell>
        <mxCell id="aScQEyIa5uzGYhcaweQR-12" value="" style="shape=tableRow;horizontal=0;startSize=0;swimlaneHead=0;swimlaneBody=0;strokeColor=inherit;top=0;left=0;bottom=0;right=0;collapsible=0;dropTarget=0;fillColor=none;points=[[0,0.5],[1,0.5]];portConstraint=eastwest;fontSize=12;rounded=1;labelBackgroundColor=none;hachureGap=4;fontFamily=Architects Daughter;fontSource=https%3A%2F%2Ffonts.googleapis.com%2Fcss%3Ffamily%3DArchitects%2BDaughter;fontColor=#ffffff;html=1;snapToPoint=0;" vertex="1" parent="aScQEyIa5uzGYhcaweQR-11">
          <mxGeometry y="30" width="180" height="30" as="geometry" />
        </mxCell>
        <mxCell id="aScQEyIa5uzGYhcaweQR-13" value="Person" style="shape=partialRectangle;html=1;whiteSpace=wrap;connectable=0;strokeColor=inherit;overflow=hidden;fillColor=#083F75;top=0;left=0;bottom=0;right=0;pointerEvents=1;fontSize=12;align=left;fontColor=#FFFFFF;gradientColor=none;spacingLeft=10;spacingRight=4;rounded=1;labelBackgroundColor=none;hachureGap=4;fontFamily=Architects Daughter;fontSource=https%3A%2F%2Ffonts.googleapis.com%2Fcss%3Ffamily%3DArchitects%2BDaughter;snapToPoint=0;" vertex="1" parent="aScQEyIa5uzGYhcaweQR-12">
          <mxGeometry width="180" height="30" as="geometry">
            <mxRectangle width="180" height="30" as="alternateBounds" />
          </mxGeometry>
        </mxCell>
        <mxCell id="aScQEyIa5uzGYhcaweQR-14" value="" style="shape=tableRow;horizontal=0;startSize=0;swimlaneHead=0;swimlaneBody=0;strokeColor=inherit;top=0;left=0;bottom=0;right=0;collapsible=0;dropTarget=0;fillColor=none;points=[[0,0.5],[1,0.5]];portConstraint=eastwest;fontSize=12;rounded=1;labelBackgroundColor=none;hachureGap=4;fontFamily=Architects Daughter;fontSource=https%3A%2F%2Ffonts.googleapis.com%2Fcss%3Ffamily%3DArchitects%2BDaughter;fontColor=#ffffff;html=1;snapToPoint=0;" vertex="1" parent="aScQEyIa5uzGYhcaweQR-11">
          <mxGeometry y="60" width="180" height="30" as="geometry" />
        </mxCell>
        <mxCell id="aScQEyIa5uzGYhcaweQR-15" value="Software System" style="shape=partialRectangle;html=1;whiteSpace=wrap;connectable=0;strokeColor=inherit;overflow=hidden;fillColor=#3162AF;top=0;left=0;bottom=0;right=0;pointerEvents=1;fontSize=12;align=left;fontColor=#FFFFFF;gradientColor=none;spacingLeft=10;spacingRight=4;rounded=1;labelBackgroundColor=none;hachureGap=4;fontFamily=Architects Daughter;fontSource=https%3A%2F%2Ffonts.googleapis.com%2Fcss%3Ffamily%3DArchitects%2BDaughter;snapToPoint=0;" vertex="1" parent="aScQEyIa5uzGYhcaweQR-14">
          <mxGeometry width="180" height="30" as="geometry">
            <mxRectangle width="180" height="30" as="alternateBounds" />
          </mxGeometry>
        </mxCell>
        <mxCell id="aScQEyIa5uzGYhcaweQR-16" value="" style="shape=tableRow;horizontal=0;startSize=0;swimlaneHead=0;swimlaneBody=0;strokeColor=inherit;top=0;left=0;bottom=0;right=0;collapsible=0;dropTarget=0;fillColor=none;points=[[0,0.5],[1,0.5]];portConstraint=eastwest;fontSize=12;rounded=1;labelBackgroundColor=none;hachureGap=4;fontFamily=Architects Daughter;fontSource=https%3A%2F%2Ffonts.googleapis.com%2Fcss%3Ffamily%3DArchitects%2BDaughter;fontColor=#ffffff;html=1;snapToPoint=0;" vertex="1" parent="aScQEyIa5uzGYhcaweQR-11">
          <mxGeometry y="90" width="180" height="30" as="geometry" />
        </mxCell>
        <mxCell id="aScQEyIa5uzGYhcaweQR-17" value="Container" style="shape=partialRectangle;html=1;whiteSpace=wrap;connectable=0;strokeColor=inherit;overflow=hidden;fillColor=#23A2D9;top=0;left=0;bottom=0;right=0;pointerEvents=1;fontSize=12;align=left;fontColor=#FFFFFF;gradientColor=none;spacingLeft=10;spacingRight=4;rounded=1;labelBackgroundColor=none;hachureGap=4;fontFamily=Architects Daughter;fontSource=https%3A%2F%2Ffonts.googleapis.com%2Fcss%3Ffamily%3DArchitects%2BDaughter;snapToPoint=0;" vertex="1" parent="aScQEyIa5uzGYhcaweQR-16">
          <mxGeometry width="180" height="30" as="geometry">
            <mxRectangle width="180" height="30" as="alternateBounds" />
          </mxGeometry>
        </mxCell>
        <mxCell id="aScQEyIa5uzGYhcaweQR-18" value="" style="shape=tableRow;horizontal=0;startSize=0;swimlaneHead=0;swimlaneBody=0;strokeColor=inherit;top=0;left=0;bottom=0;right=0;collapsible=0;dropTarget=0;fillColor=none;points=[[0,0.5],[1,0.5]];portConstraint=eastwest;fontSize=12;rounded=1;labelBackgroundColor=none;hachureGap=4;fontFamily=Architects Daughter;fontSource=https%3A%2F%2Ffonts.googleapis.com%2Fcss%3Ffamily%3DArchitects%2BDaughter;fontColor=#ffffff;html=1;snapToPoint=0;" vertex="1" parent="aScQEyIa5uzGYhcaweQR-11">
          <mxGeometry y="120" width="180" height="30" as="geometry" />
        </mxCell>
        <mxCell id="aScQEyIa5uzGYhcaweQR-19" value="Component" style="shape=partialRectangle;html=1;whiteSpace=wrap;connectable=0;strokeColor=inherit;overflow=hidden;fillColor=#63BEF2;top=0;left=0;bottom=0;right=0;pointerEvents=1;fontSize=12;align=left;fontColor=#FFFFFF;gradientColor=none;spacingLeft=10;spacingRight=4;rounded=1;labelBackgroundColor=none;hachureGap=4;fontFamily=Architects Daughter;fontSource=https%3A%2F%2Ffonts.googleapis.com%2Fcss%3Ffamily%3DArchitects%2BDaughter;snapToPoint=0;" vertex="1" parent="aScQEyIa5uzGYhcaweQR-18">
          <mxGeometry width="180" height="30" as="geometry">
            <mxRectangle width="180" height="30" as="alternateBounds" />
          </mxGeometry>
        </mxCell>
        <mxCell id="aScQEyIa5uzGYhcaweQR-20" value="" style="shape=tableRow;horizontal=0;startSize=0;swimlaneHead=0;swimlaneBody=0;strokeColor=inherit;top=0;left=0;bottom=0;right=0;collapsible=0;dropTarget=0;fillColor=none;points=[[0,0.5],[1,0.5]];portConstraint=eastwest;fontSize=12;rounded=1;labelBackgroundColor=none;hachureGap=4;fontFamily=Architects Daughter;fontSource=https%3A%2F%2Ffonts.googleapis.com%2Fcss%3Ffamily%3DArchitects%2BDaughter;fontColor=#ffffff;html=1;snapToPoint=0;" vertex="1" parent="aScQEyIa5uzGYhcaweQR-11">
          <mxGeometry y="150" width="180" height="30" as="geometry" />
        </mxCell>
        <mxCell id="aScQEyIa5uzGYhcaweQR-21" value="External Software System" style="shape=partialRectangle;html=1;whiteSpace=wrap;connectable=0;strokeColor=inherit;overflow=hidden;fillColor=#8C8496;top=0;left=0;bottom=0;right=0;pointerEvents=1;fontSize=12;align=left;fontColor=#FFFFFF;gradientColor=none;spacingLeft=10;spacingRight=4;rounded=1;labelBackgroundColor=none;hachureGap=4;fontFamily=Architects Daughter;fontSource=https%3A%2F%2Ffonts.googleapis.com%2Fcss%3Ffamily%3DArchitects%2BDaughter;snapToPoint=0;" vertex="1" parent="aScQEyIa5uzGYhcaweQR-20">
          <mxGeometry width="180" height="30" as="geometry">
            <mxRectangle width="180" height="30" as="alternateBounds" />
          </mxGeometry>
        </mxCell>
        <object placeholders="1" c4Name="Log System" c4Type="Container: Browser" c4Description="Provide rules and field definitions for log reporting." label="&lt;font style=&quot;font-size: 16px&quot;&gt;&lt;b&gt;%c4Name%&lt;/b&gt;&lt;/font&gt;&lt;div&gt;[%c4Type%]&lt;/div&gt;&lt;br&gt;&lt;div&gt;&lt;font style=&quot;font-size: 11px&quot;&gt;&lt;font color=&quot;#cccccc&quot;&gt;%c4Description%&lt;/font&gt;&lt;/div&gt;" id="aScQEyIa5uzGYhcaweQR-22">
          <mxCell style="rounded=1;whiteSpace=wrap;html=1;labelBackgroundColor=none;fillColor=#8C8496;fontColor=#333333;align=center;arcSize=10;strokeColor=#736782;metaEdit=1;resizable=0;points=[[0.25,0,0],[0.5,0,0],[0.75,0,0],[1,0.25,0],[1,0.5,0],[1,0.75,0],[0.75,1,0],[0.5,1,0],[0.25,1,0],[0,0.75,0],[0,0.5,0],[0,0.25,0]];snapToPoint=0;" vertex="1" parent="rLxDIQMhWm0sZyYMqCqf-1">
            <mxGeometry x="-800" y="-240" width="240" height="120" as="geometry" />
          </mxCell>
        </object>
        <mxCell id="aScQEyIa5uzGYhcaweQR-23" style="edgeStyle=none;rounded=0;orthogonalLoop=1;jettySize=auto;html=1;exitX=0.5;exitY=1;exitDx=0;exitDy=0;exitPerimeter=0;entryX=0.5;entryY=0;entryDx=0;entryDy=0;entryPerimeter=0;dashed=1;snapToPoint=0;" edge="1" parent="rLxDIQMhWm0sZyYMqCqf-1" source="aScQEyIa5uzGYhcaweQR-10" target="aScQEyIa5uzGYhcaweQR-9">
          <mxGeometry relative="1" as="geometry">
            <mxPoint x="-250" y="-706" as="sourcePoint" />
            <mxPoint x="-250" y="-590" as="targetPoint" />
          </mxGeometry>
        </mxCell>
        <mxCell id="aScQEyIa5uzGYhcaweQR-24" value="Load App" style="edgeLabel;html=1;align=center;verticalAlign=middle;resizable=0;points=[];snapToPoint=0;" vertex="1" connectable="0" parent="aScQEyIa5uzGYhcaweQR-23">
          <mxGeometry x="-0.3461" y="-1" relative="1" as="geometry">
            <mxPoint x="1" y="12" as="offset" />
          </mxGeometry>
        </mxCell>
        <object placeholders="1" c4Name="JHK Cloud" c4Type="Server System" c4Description="Save media asset information, watch history, and advertising content." label="&lt;font style=&quot;font-size: 16px&quot;&gt;&lt;b&gt;%c4Name%&lt;/b&gt;&lt;/font&gt;&lt;div&gt;[%c4Type%]&lt;/div&gt;&lt;br&gt;&lt;div&gt;&lt;font style=&quot;font-size: 11px&quot;&gt;&lt;font color=&quot;#cccccc&quot;&gt;%c4Description%&lt;/font&gt;&lt;/div&gt;" id="aScQEyIa5uzGYhcaweQR-25">
          <mxCell style="rounded=1;whiteSpace=wrap;html=1;labelBackgroundColor=none;fillColor=#8C8496;align=center;arcSize=10;strokeColor=#736782;metaEdit=1;resizable=0;points=[[0.25,0,0],[0.5,0,0],[0.75,0,0],[1,0.25,0],[1,0.5,0],[1,0.75,0],[0.75,1,0],[0.5,1,0],[0.25,1,0],[0,0.75,0],[0,0.5,0],[0,0.25,0]];fontColor=#333333;snapToPoint=0;" vertex="1" parent="rLxDIQMhWm0sZyYMqCqf-1">
            <mxGeometry x="587" y="-240" width="240" height="120" as="geometry" />
          </mxCell>
        </object>
        <object placeholders="1" c4Name="HiPlayer" c4Type="Media Player" c4Description="Play streaming media of HLS, DASH protocol." label="&lt;font style=&quot;font-size: 16px&quot;&gt;&lt;b&gt;%c4Name%&lt;/b&gt;&lt;/font&gt;&lt;div&gt;[%c4Type%]&lt;/div&gt;&lt;br&gt;&lt;div&gt;&lt;font style=&quot;font-size: 11px&quot;&gt;&lt;font color=&quot;#cccccc&quot;&gt;%c4Description%&lt;/font&gt;&lt;/div&gt;" id="aScQEyIa5uzGYhcaweQR-26">
          <mxCell style="rounded=1;whiteSpace=wrap;html=1;labelBackgroundColor=none;fillColor=#8C8496;align=center;arcSize=10;strokeColor=#736782;metaEdit=1;resizable=0;points=[[0.25,0,0],[0.5,0,0],[0.75,0,0],[1,0.25,0],[1,0.5,0],[1,0.75,0],[0.75,1,0],[0.5,1,0],[0.25,1,0],[0,0.75,0],[0,0.5,0],[0,0.25,0]];fontColor=#333333;snapToPoint=0;" vertex="1" parent="rLxDIQMhWm0sZyYMqCqf-1">
            <mxGeometry x="200" y="-40" width="240" height="120" as="geometry" />
          </mxCell>
        </object>
        <object placeholders="1" c4Name="3rd Application" c4Type="Others App" c4Description="Any other relevant applications." label="&lt;font style=&quot;font-size: 16px&quot;&gt;&lt;b&gt;%c4Name%&lt;/b&gt;&lt;/font&gt;&lt;div&gt;[%c4Type%]&lt;/div&gt;&lt;br&gt;&lt;div&gt;&lt;font style=&quot;font-size: 11px&quot;&gt;&lt;font color=&quot;#cccccc&quot;&gt;%c4Description%&lt;/font&gt;&lt;/div&gt;" id="aScQEyIa5uzGYhcaweQR-27">
          <mxCell style="rounded=1;whiteSpace=wrap;html=1;labelBackgroundColor=none;fillColor=#8C8496;align=center;arcSize=10;strokeColor=#736782;metaEdit=1;resizable=0;points=[[0.25,0,0],[0.5,0,0],[0.75,0,0],[1,0.25,0],[1,0.5,0],[1,0.75,0],[0.75,1,0],[0.5,1,0],[0.25,1,0],[0,0.75,0],[0,0.5,0],[0,0.25,0]];fontColor=#333333;snapToPoint=0;" vertex="1" parent="rLxDIQMhWm0sZyYMqCqf-1">
            <mxGeometry x="-360" y="-40" width="240" height="120" as="geometry" />
          </mxCell>
        </object>
        <mxCell id="aScQEyIa5uzGYhcaweQR-28" style="edgeStyle=none;rounded=0;orthogonalLoop=1;jettySize=auto;html=1;entryX=0;entryY=0.5;entryDx=0;entryDy=0;entryPerimeter=0;dashed=1;snapToPoint=0;exitX=1;exitY=0.5;exitDx=0;exitDy=0;exitPerimeter=0;" edge="1" parent="rLxDIQMhWm0sZyYMqCqf-1" source="aScQEyIa5uzGYhcaweQR-9" target="aScQEyIa5uzGYhcaweQR-25">
          <mxGeometry relative="1" as="geometry">
            <mxPoint x="427" y="-180" as="sourcePoint" />
            <mxPoint x="587" y="-270" as="targetPoint" />
          </mxGeometry>
        </mxCell>
        <mxCell id="aScQEyIa5uzGYhcaweQR-29" value="Download static files" style="edgeLabel;html=1;align=center;verticalAlign=middle;resizable=0;points=[];snapToPoint=0;" vertex="1" connectable="0" parent="aScQEyIa5uzGYhcaweQR-28">
          <mxGeometry x="0.3382" y="-2" relative="1" as="geometry">
            <mxPoint x="-24" y="-2" as="offset" />
          </mxGeometry>
        </mxCell>
        <mxCell id="aScQEyIa5uzGYhcaweQR-30" style="edgeStyle=none;rounded=0;orthogonalLoop=1;jettySize=auto;html=1;entryX=0.5;entryY=0;entryDx=0;entryDy=0;entryPerimeter=0;dashed=1;snapToPoint=0;exitX=0.75;exitY=1;exitDx=0;exitDy=0;exitPerimeter=0;" edge="1" parent="rLxDIQMhWm0sZyYMqCqf-1" source="aScQEyIa5uzGYhcaweQR-9" target="aScQEyIa5uzGYhcaweQR-26">
          <mxGeometry relative="1" as="geometry">
            <mxPoint x="367" y="-120" as="sourcePoint" />
            <mxPoint x="147" y="-319" as="targetPoint" />
          </mxGeometry>
        </mxCell>
        <mxCell id="aScQEyIa5uzGYhcaweQR-31" value="Playback Media" style="edgeLabel;html=1;align=center;verticalAlign=middle;resizable=0;points=[];snapToPoint=0;" vertex="1" connectable="0" parent="aScQEyIa5uzGYhcaweQR-30">
          <mxGeometry x="0.3382" y="-2" relative="1" as="geometry">
            <mxPoint x="-24" y="-18" as="offset" />
          </mxGeometry>
        </mxCell>
        <mxCell id="aScQEyIa5uzGYhcaweQR-32" style="edgeStyle=none;rounded=0;orthogonalLoop=1;jettySize=auto;html=1;exitX=0.25;exitY=1;exitDx=0;exitDy=0;exitPerimeter=0;entryX=0.5;entryY=0;entryDx=0;entryDy=0;entryPerimeter=0;dashed=1;snapToPoint=0;" edge="1" parent="rLxDIQMhWm0sZyYMqCqf-1" source="aScQEyIa5uzGYhcaweQR-9" target="aScQEyIa5uzGYhcaweQR-27">
          <mxGeometry relative="1" as="geometry">
            <mxPoint x="-570" y="-309" as="sourcePoint" />
            <mxPoint x="-430" y="-309" as="targetPoint" />
          </mxGeometry>
        </mxCell>
        <mxCell id="aScQEyIa5uzGYhcaweQR-33" value="Install or Open Application" style="edgeLabel;html=1;align=center;verticalAlign=middle;resizable=0;points=[];snapToPoint=0;" vertex="1" connectable="0" parent="aScQEyIa5uzGYhcaweQR-32">
          <mxGeometry x="0.3382" y="-2" relative="1" as="geometry">
            <mxPoint x="15" y="-15" as="offset" />
          </mxGeometry>
        </mxCell>
        <mxCell id="aScQEyIa5uzGYhcaweQR-34" style="edgeStyle=none;rounded=0;orthogonalLoop=1;jettySize=auto;html=1;exitX=0;exitY=0.5;exitDx=0;exitDy=0;exitPerimeter=0;entryX=1;entryY=0.5;entryDx=0;entryDy=0;entryPerimeter=0;dashed=1;snapToPoint=0;" edge="1" parent="rLxDIQMhWm0sZyYMqCqf-1" source="aScQEyIa5uzGYhcaweQR-9" target="aScQEyIa5uzGYhcaweQR-22">
          <mxGeometry relative="1" as="geometry">
            <mxPoint x="-560" y="-299" as="sourcePoint" />
            <mxPoint x="-420" y="-299" as="targetPoint" />
          </mxGeometry>
        </mxCell>
        <mxCell id="aScQEyIa5uzGYhcaweQR-35" value="Log Report" style="edgeLabel;html=1;align=center;verticalAlign=middle;resizable=0;points=[];snapToPoint=0;" vertex="1" connectable="0" parent="aScQEyIa5uzGYhcaweQR-34">
          <mxGeometry x="0.3382" y="-2" relative="1" as="geometry">
            <mxPoint x="27" y="2" as="offset" />
          </mxGeometry>
        </mxCell>
      </root>
    </mxGraphModel>
  </diagram>
</mxfile>
